<svg xmlns="http://www.w3.org/2000/svg" fill="none" viewBox="0 0 178 119">
  <path fill="#fff" fill-opacity=".25" d="M51.38 118.04c33.83 0 50.32-27.88 50.32-58.65S85.21.91 51.38.91 1.06 28.62 1.06 59.4c0 30.77 16.49 58.65 50.32 58.65Zm0-30.26c-10.88 0-15.81-9.18-15.81-28.39 0-19.2 4.93-28.22 15.81-28.22s15.81 9.01 15.81 28.22-4.93 28.4-15.81 28.4ZM177.68 116V2.61H148.1l-43.35 42.5 19.38 20.23 19.2-19.04V116h34.35Z"/>
  <path fill="#1F1313" d="M51.38 118.3c17 0 29.65-7.01 38.04-17.9 8.4-10.86 12.53-25.58 12.53-41h-.5c0 15.34-4.11 29.94-12.42 40.7-8.3 10.76-20.81 17.7-37.65 17.7v.5Zm50.57-58.9c0-15.43-4.13-30.11-12.53-40.94C81.02 7.62 68.37.66 51.38.66v.5c16.84 0 29.35 6.9 37.65 17.6 8.3 10.73 12.42 25.29 12.42 40.63h.5ZM51.38.65c-17 0-29.64 6.96-38.04 17.8C4.94 29.29.8 43.96.8 59.39h.5c0-15.34 4.11-29.9 12.42-40.62 8.3-10.72 20.81-17.6 37.65-17.6v-.5ZM.81 59.4c0 15.43 4.13 30.15 12.53 41.02 8.4 10.88 21.05 17.88 38.04 17.88v-.5c-16.84 0-29.34-6.93-37.65-17.69C5.43 89.34 1.31 74.74 1.31 59.4h-.5Zm50.57 28.14c-2.68 0-4.99-.56-6.93-1.7a13.08 13.08 0 0 1-4.84-5.16c-2.56-4.64-3.79-11.69-3.79-21.28h-.5c0 9.62 1.23 16.77 3.86 21.52a13.58 13.58 0 0 0 5.01 5.35 14.01 14.01 0 0 0 7.19 1.77v-.5ZM35.82 59.4c0-9.6 1.23-16.6 3.8-21.19a12.94 12.94 0 0 1 4.82-5.1 13.66 13.66 0 0 1 6.94-1.68v-.5c-2.76 0-5.15.57-7.18 1.74a13.44 13.44 0 0 0-5.02 5.3c-2.63 4.7-3.86 11.82-3.86 21.43h.5Zm15.56-27.97c2.68 0 4.99.56 6.94 1.68a12.94 12.94 0 0 1 4.83 5.1c2.56 4.6 3.79 11.6 3.79 21.2h.5c0-9.62-1.23-16.73-3.86-21.44a13.44 13.44 0 0 0-5.02-5.3 14.16 14.16 0 0 0-7.18-1.74v.5ZM66.94 59.4c0 9.6-1.23 16.64-3.8 21.28a13.08 13.08 0 0 1-4.83 5.16 13.51 13.51 0 0 1-6.93 1.7v.5c2.76 0 5.15-.58 7.19-1.77a13.58 13.58 0 0 0 5.01-5.35c2.63-4.75 3.86-11.9 3.86-21.52h-.5ZM177.68 116v.25h.25V116h-.25Zm0-113.39h.25v-.25h-.25v.25Zm-29.58 0v-.25h-.1l-.08.07.18.18Zm-43.35 42.5-.18-.18-.17.18.17.17.18-.17Zm19.38 20.23-.18.17.17.19.18-.18-.17-.18Zm19.2-19.04h.26v-.6l-.43.42.18.18Zm0 69.7h-.24v.25h.25V116Zm34.6 0V2.61h-.5v113.4h.5Zm-.25-113.64H148.1v.5h29.58v-.5Zm-29.76.07-43.35 42.5.35.36 43.35-42.5-.35-.36Zm-43.35 42.85 19.38 20.23.36-.34-19.38-20.23-.36.34Zm19.73 20.24 19.21-19.04-.35-.36-19.2 19.04.34.36ZM143.1 46.3V116h.5V46.3h-.5Zm.25 69.95h34.34v-.5h-34.34v.5Z"/>
</svg>