<svg width="23" height="16" viewBox="0 0 23 16" fill="none" xmlns="http://www.w3.org/2000/svg">
<path d="M6.51703 14.18C5.01703 14.18 3.87103 13.616 3.07903 12.488C2.28703 11.348 1.89103 9.728 1.89103 7.628C1.89103 5.504 2.28703 3.89 3.07903 2.786C3.87103 1.682 5.01703 1.13 6.51703 1.13C8.02903 1.13 9.17503 1.682 9.95503 2.786C10.747 3.89 11.143 5.498 11.143 7.61C11.143 9.722 10.747 11.348 9.95503 12.488C9.16303 13.616 8.01703 14.18 6.51703 14.18ZM6.51703 12.29C7.33303 12.29 7.93303 11.918 8.31703 11.174C8.71303 10.418 8.91103 9.23 8.91103 7.61C8.91103 6.002 8.71303 4.838 8.31703 4.118C7.93303 3.386 7.33303 3.02 6.51703 3.02C5.71303 3.02 5.11303 3.386 4.71703 4.118C4.32103 4.838 4.12303 6.002 4.12303 7.61C4.12303 9.23 4.32103 10.418 4.71703 11.174C5.11303 11.918 5.71303 12.29 6.51703 12.29ZM13.53 14V12.29L17.634 7.916C18.186 7.316 18.582 6.788 18.822 6.332C19.062 5.864 19.182 5.39 19.182 4.91C19.182 3.686 18.444 3.074 16.968 3.074C15.816 3.074 14.754 3.506 13.782 4.37L13.008 2.642C13.512 2.186 14.142 1.82 14.898 1.544C15.654 1.268 16.44 1.13 17.256 1.13C18.612 1.13 19.65 1.436 20.37 2.048C21.102 2.66 21.468 3.536 21.468 4.676C21.468 5.444 21.282 6.182 20.91 6.89C20.55 7.598 19.98 8.36 19.2 9.176L16.41 12.092H21.954V14H13.53Z" fill="white"/>
<path d="M3.07903 12.488L2.25776 13.0586L2.26062 13.0626L3.07903 12.488ZM3.07903 2.786L2.26649 2.20309L3.07903 2.786ZM9.95503 2.786L9.13829 3.36305L9.14249 3.36891L9.95503 2.786ZM9.95503 12.488L10.7735 13.0626L10.7763 13.0586L9.95503 12.488ZM8.31703 11.174L7.43118 10.71L7.42841 10.7154L8.31703 11.174ZM8.31703 4.118L7.43148 4.58255L7.43606 4.59128L7.44082 4.59992L8.31703 4.118ZM4.71703 4.118L5.59327 4.59993L5.59657 4.59382L4.71703 4.118ZM4.71703 11.174L3.83118 11.638L3.83428 11.6438L4.71703 11.174ZM6.51703 13.18C5.30912 13.18 4.48365 12.7483 3.89744 11.9134L2.26062 13.0626C3.25841 14.4837 4.72494 15.18 6.51703 15.18V13.18ZM3.90029 11.9174C3.27034 11.0107 2.89103 9.62228 2.89103 7.628H0.891031C0.891031 9.83372 1.30372 11.6853 2.25777 13.0586L3.90029 11.9174ZM2.89103 7.628C2.89103 5.60356 3.27271 4.23157 3.89157 3.36891L2.26649 2.20309C1.30136 3.54843 0.891031 5.40444 0.891031 7.628H2.89103ZM3.89157 3.36891C4.47413 2.55685 5.30031 2.13 6.51703 2.13V0.129999C4.73376 0.129999 3.26793 0.807147 2.26649 2.20309L3.89157 3.36891ZM6.51703 2.13C7.74897 2.13 8.57011 2.55881 9.13831 3.36303L10.7718 2.20897C9.77995 0.805188 8.30909 0.129999 6.51703 0.129999V2.13ZM9.14249 3.36891C9.76191 4.23233 10.143 5.59903 10.143 7.61H12.143C12.143 5.39697 11.7322 3.54767 10.7676 2.20309L9.14249 3.36891ZM10.143 7.61C10.143 9.61771 9.76318 11.0115 9.13377 11.9174L10.7763 13.0586C11.7309 11.6845 12.143 9.82629 12.143 7.61H10.143ZM9.13662 11.9134C8.55041 12.7483 7.72494 13.18 6.51703 13.18V15.18C8.30912 15.18 9.77565 14.4837 10.7734 13.0626L9.13662 11.9134ZM6.51703 13.29C7.08165 13.29 7.62434 13.1595 8.10597 12.8609C8.58616 12.5632 8.94624 12.1352 9.20565 11.6326L7.42841 10.7154C7.30382 10.9568 7.1719 11.0868 7.05209 11.1611C6.93372 11.2345 6.76841 11.29 6.51703 11.29V13.29ZM9.20286 11.638C9.7148 10.6607 9.91103 9.27106 9.91103 7.61H7.91103C7.91103 9.18894 7.71126 10.1753 7.4312 10.71L9.20286 11.638ZM9.91103 7.61C9.91103 5.96595 9.71653 4.5875 9.19325 3.63608L7.44082 4.59992C7.70953 5.0885 7.91103 6.03805 7.91103 7.61H9.91103ZM9.20258 3.65345C8.94143 3.15564 8.57975 2.73357 8.09979 2.4408C7.61912 2.14758 7.07869 2.02 6.51703 2.02V4.02C6.77137 4.02 6.93895 4.07541 7.05827 4.1482C7.17831 4.22143 7.30863 4.34836 7.43148 4.58255L9.20258 3.65345ZM6.51703 2.02C5.9583 2.02 5.42167 2.14897 4.94327 2.4408C4.4667 2.73151 4.10401 3.14952 3.83749 3.64218L5.59657 4.59382C5.72605 4.35448 5.86137 4.22349 5.98479 4.1482C6.10639 4.07403 6.27176 4.02 6.51703 4.02V2.02ZM3.84082 3.63608C3.31753 4.5875 3.12303 5.96595 3.12303 7.61H5.12303C5.12303 6.03805 5.32453 5.08849 5.59325 4.59992L3.84082 3.63608ZM3.12303 7.61C3.12303 9.27106 3.31926 10.6607 3.8312 11.638L5.60286 10.71C5.3228 10.1753 5.12303 9.18894 5.12303 7.61H3.12303ZM3.83428 11.6438C4.09912 12.1414 4.4603 12.5653 4.93709 12.8609C5.41642 13.1581 5.9553 13.29 6.51703 13.29V11.29C6.27476 11.29 6.11164 11.2359 5.99097 11.1611C5.86777 11.0847 5.73095 10.9506 5.59978 10.7042L3.83428 11.6438ZM13.53 14H12.53V15H13.53V14ZM13.53 12.29L12.8007 11.6058L12.53 11.8943V12.29H13.53ZM17.634 7.916L18.3633 8.60027L18.3699 8.59306L17.634 7.916ZM18.822 6.332L19.707 6.79777L19.7118 6.78832L18.822 6.332ZM13.782 4.37L12.8694 4.77878L13.4269 6.02357L14.4464 5.11741L13.782 4.37ZM13.008 2.642L12.3371 1.90046L11.7984 2.38783L12.0954 3.05078L13.008 2.642ZM14.898 1.544L14.5551 0.604642L14.898 1.544ZM20.37 2.048L19.7223 2.80996L19.7286 2.81519L20.37 2.048ZM20.91 6.89L20.0247 6.42483L20.0186 6.43675L20.91 6.89ZM19.2 9.176L19.9225 9.86732L19.9229 9.86698L19.2 9.176ZM16.41 12.092L15.6875 11.4007L14.0692 13.092H16.41V12.092ZM21.954 12.092H22.954V11.092H21.954V12.092ZM21.954 14V15H22.954V14H21.954ZM14.53 14V12.29H12.53V14H14.53ZM14.2593 12.9742L18.3633 8.60024L16.9047 7.23176L12.8007 11.6058L14.2593 12.9742ZM18.3699 8.59306C18.9508 7.96171 19.4103 7.36135 19.7069 6.79775L17.9371 5.86625C17.7537 6.21465 17.4212 6.67029 16.8981 7.23894L18.3699 8.59306ZM19.7118 6.78832C20.0172 6.19288 20.182 5.56348 20.182 4.91H18.182C18.182 5.21652 18.1068 5.53512 17.9322 5.87568L19.7118 6.78832ZM20.182 4.91C20.182 4.08945 19.9256 3.30958 19.2668 2.76324C18.6439 2.24664 17.8193 2.074 16.968 2.074V4.074C17.5927 4.074 17.8751 4.20736 17.9902 4.30276C18.0694 4.36842 18.182 4.50655 18.182 4.91H20.182ZM16.968 2.074C15.5393 2.074 14.2474 2.61835 13.1176 3.62259L14.4464 5.11741C15.2606 4.39365 16.0927 4.074 16.968 4.074V2.074ZM14.6946 3.96122L13.9206 2.23322L12.0954 3.05078L12.8694 4.77878L14.6946 3.96122ZM13.6789 3.38353C14.0715 3.02835 14.5841 2.72315 15.2409 2.48336L14.5551 0.604642C13.6999 0.91685 12.9525 1.34365 12.3371 1.90046L13.6789 3.38353ZM15.2409 2.48336C15.8855 2.24804 16.5553 2.13 17.256 2.13V0.129999C16.3247 0.129999 15.4225 0.28796 14.5551 0.604642L15.2409 2.48336ZM17.256 2.13C18.4761 2.13 19.2477 2.40652 19.7224 2.80994L21.0176 1.28606C20.0523 0.465476 18.7479 0.129999 17.256 0.129999V2.13ZM19.7286 2.81519C20.1886 3.1998 20.468 3.76851 20.468 4.676H22.468C22.468 3.30349 22.0154 2.1202 21.0114 1.28081L19.7286 2.81519ZM20.468 4.676C20.468 5.27515 20.3246 5.85418 20.0248 6.42487L21.7952 7.35513C22.2394 6.50982 22.468 5.61285 22.468 4.676H20.468ZM20.0186 6.43675C19.7172 7.02961 19.2156 7.71249 18.4771 8.48502L19.9229 9.86698C20.7444 9.00751 21.3828 8.16639 21.8014 7.34325L20.0186 6.43675ZM18.4775 8.48468L15.6875 11.4007L17.1325 12.7833L19.9225 9.86732L18.4775 8.48468ZM16.41 13.092H21.954V11.092H16.41V13.092ZM20.954 12.092V14H22.954V12.092H20.954ZM21.954 13H13.53V15H21.954V13Z" fill="white"/>
</svg>
