<svg width="23" height="16" viewBox="0 0 23 16" fill="none" xmlns="http://www.w3.org/2000/svg">
<path d="M6.51703 14.18C5.01703 14.18 3.87103 13.616 3.07903 12.488C2.28703 11.348 1.89103 9.728 1.89103 7.628C1.89103 5.504 2.28703 3.89 3.07903 2.786C3.87103 1.682 5.01703 1.13 6.51703 1.13C8.02903 1.13 9.17503 1.682 9.95503 2.786C10.747 3.89 11.143 5.498 11.143 7.61C11.143 9.722 10.747 11.348 9.95503 12.488C9.16303 13.616 8.01703 14.18 6.51703 14.18ZM6.51703 12.29C7.33303 12.29 7.93303 11.918 8.31703 11.174C8.71303 10.418 8.91103 9.23 8.91103 7.61C8.91103 6.002 8.71303 4.838 8.31703 4.118C7.93303 3.386 7.33303 3.02 6.51703 3.02C5.71303 3.02 5.11303 3.386 4.71703 4.118C4.32103 4.838 4.12303 6.002 4.12303 7.61C4.12303 9.23 4.32103 10.418 4.71703 11.174C5.11303 11.918 5.71303 12.29 6.51703 12.29ZM17.238 14.18C16.374 14.18 15.546 14.054 14.754 13.802C13.974 13.538 13.326 13.184 12.81 12.74L13.566 10.976C14.646 11.816 15.846 12.236 17.166 12.236C18.786 12.236 19.596 11.6 19.596 10.328C19.596 9.728 19.392 9.284 18.984 8.996C18.588 8.696 18.006 8.546 17.238 8.546H15.204V6.638H17.022C17.694 6.638 18.228 6.476 18.624 6.152C19.02 5.816 19.218 5.354 19.218 4.766C19.218 4.214 19.032 3.794 18.66 3.506C18.3 3.218 17.772 3.074 17.076 3.074C15.828 3.074 14.73 3.506 13.782 4.37L13.026 2.642C13.53 2.162 14.16 1.79 14.916 1.526C15.672 1.262 16.458 1.13 17.274 1.13C18.594 1.13 19.62 1.43 20.352 2.03C21.084 2.618 21.45 3.44 21.45 4.496C21.45 5.18 21.276 5.78 20.928 6.296C20.58 6.812 20.106 7.184 19.506 7.412C20.238 7.616 20.808 7.994 21.216 8.546C21.624 9.086 21.828 9.746 21.828 10.526C21.828 11.654 21.42 12.548 20.604 13.208C19.788 13.856 18.666 14.18 17.238 14.18Z" fill="white"/>
<path d="M3.07903 12.488L2.25776 13.0586L2.26062 13.0626L3.07903 12.488ZM3.07903 2.786L2.26649 2.20309L3.07903 2.786ZM9.95503 2.786L9.13829 3.36305L9.14249 3.36891L9.95503 2.786ZM9.95503 12.488L10.7735 13.0626L10.7763 13.0586L9.95503 12.488ZM8.31703 11.174L7.43118 10.71L7.42841 10.7154L8.31703 11.174ZM8.31703 4.118L7.43148 4.58255L7.43606 4.59128L7.44082 4.59992L8.31703 4.118ZM4.71703 4.118L5.59327 4.59993L5.59657 4.59382L4.71703 4.118ZM4.71703 11.174L3.83118 11.638L3.83428 11.6438L4.71703 11.174ZM6.51703 13.18C5.30912 13.18 4.48365 12.7483 3.89744 11.9134L2.26062 13.0626C3.25841 14.4837 4.72494 15.18 6.51703 15.18V13.18ZM3.90029 11.9174C3.27034 11.0107 2.89103 9.62228 2.89103 7.628H0.891031C0.891031 9.83372 1.30372 11.6853 2.25777 13.0586L3.90029 11.9174ZM2.89103 7.628C2.89103 5.60356 3.27271 4.23157 3.89157 3.36891L2.26649 2.20309C1.30136 3.54843 0.891031 5.40444 0.891031 7.628H2.89103ZM3.89157 3.36891C4.47413 2.55685 5.30031 2.13 6.51703 2.13V0.129999C4.73376 0.129999 3.26793 0.807147 2.26649 2.20309L3.89157 3.36891ZM6.51703 2.13C7.74897 2.13 8.57011 2.55881 9.13831 3.36303L10.7718 2.20897C9.77995 0.805188 8.30909 0.129999 6.51703 0.129999V2.13ZM9.14249 3.36891C9.76191 4.23233 10.143 5.59903 10.143 7.61H12.143C12.143 5.39697 11.7322 3.54767 10.7676 2.20309L9.14249 3.36891ZM10.143 7.61C10.143 9.61771 9.76318 11.0115 9.13377 11.9174L10.7763 13.0586C11.7309 11.6845 12.143 9.82629 12.143 7.61H10.143ZM9.13662 11.9134C8.55041 12.7483 7.72494 13.18 6.51703 13.18V15.18C8.30912 15.18 9.77565 14.4837 10.7734 13.0626L9.13662 11.9134ZM6.51703 13.29C7.08165 13.29 7.62434 13.1595 8.10597 12.8609C8.58616 12.5632 8.94624 12.1352 9.20565 11.6326L7.42841 10.7154C7.30382 10.9568 7.1719 11.0868 7.05209 11.1611C6.93372 11.2345 6.76841 11.29 6.51703 11.29V13.29ZM9.20286 11.638C9.7148 10.6607 9.91103 9.27106 9.91103 7.61H7.91103C7.91103 9.18894 7.71126 10.1753 7.4312 10.71L9.20286 11.638ZM9.91103 7.61C9.91103 5.96595 9.71653 4.5875 9.19325 3.63608L7.44082 4.59992C7.70953 5.0885 7.91103 6.03805 7.91103 7.61H9.91103ZM9.20258 3.65345C8.94143 3.15564 8.57975 2.73357 8.09979 2.4408C7.61912 2.14758 7.07869 2.02 6.51703 2.02V4.02C6.77137 4.02 6.93895 4.07541 7.05827 4.1482C7.17831 4.22143 7.30863 4.34836 7.43148 4.58255L9.20258 3.65345ZM6.51703 2.02C5.9583 2.02 5.42167 2.14897 4.94327 2.4408C4.4667 2.73151 4.10401 3.14952 3.83749 3.64218L5.59657 4.59382C5.72605 4.35448 5.86137 4.22349 5.98479 4.1482C6.10639 4.07403 6.27176 4.02 6.51703 4.02V2.02ZM3.84082 3.63608C3.31753 4.5875 3.12303 5.96595 3.12303 7.61H5.12303C5.12303 6.03805 5.32453 5.08849 5.59325 4.59992L3.84082 3.63608ZM3.12303 7.61C3.12303 9.27106 3.31926 10.6607 3.8312 11.638L5.60286 10.71C5.3228 10.1753 5.12303 9.18894 5.12303 7.61H3.12303ZM3.83428 11.6438C4.09912 12.1414 4.4603 12.5653 4.93709 12.8609C5.41642 13.1581 5.9553 13.29 6.51703 13.29V11.29C6.27476 11.29 6.11164 11.2359 5.99097 11.1611C5.86777 11.0847 5.73095 10.9506 5.59978 10.7042L3.83428 11.6438ZM14.754 13.802L14.4334 14.7492L14.4421 14.7521L14.4508 14.7549L14.754 13.802ZM12.81 12.74L11.8909 12.3461L11.6021 13.0199L12.1578 13.498L12.81 12.74ZM13.566 10.976L14.1799 10.1866L13.1572 9.39121L12.6469 10.5821L13.566 10.976ZM18.984 8.996L18.3801 9.79309L18.3936 9.80326L18.4073 9.81297L18.984 8.996ZM15.204 8.546H14.204V9.546H15.204V8.546ZM15.204 6.638V5.638H14.204V6.638H15.204ZM18.624 6.152L19.2572 6.92596L19.2642 6.92029L19.271 6.91451L18.624 6.152ZM18.66 3.506L18.0353 4.28687L18.0415 4.29185L18.0478 4.29672L18.66 3.506ZM13.782 4.37L12.8658 4.77082L13.4248 6.04852L14.4556 5.10909L13.782 4.37ZM13.026 2.642L12.3363 1.91786L11.829 2.401L12.1098 3.04282L13.026 2.642ZM14.916 1.526L14.5863 0.581908L14.916 1.526ZM20.352 2.03L19.718 2.80343L19.7257 2.80962L20.352 2.03ZM20.928 6.296L20.0989 5.73686L20.928 6.296ZM19.506 7.412L19.1508 6.47722L16.3059 7.55827L19.2375 8.37529L19.506 7.412ZM21.216 8.546L20.4118 9.14042L20.4181 9.14883L21.216 8.546ZM20.604 13.208L21.2259 13.9911L21.2329 13.9855L20.604 13.208ZM17.238 13.18C16.4728 13.18 15.7473 13.0687 15.0572 12.8491L14.4508 14.7549C15.3447 15.0393 16.2752 15.18 17.238 15.18V13.18ZM15.0746 12.8548C14.3914 12.6236 13.8628 12.3266 13.4622 11.982L12.1578 13.498C12.7892 14.0414 13.5566 14.4524 14.4334 14.7492L15.0746 12.8548ZM13.7291 13.1339L14.4851 11.3699L12.6469 10.5821L11.8909 12.3461L13.7291 13.1339ZM12.9521 11.7654C14.2007 12.7365 15.615 13.236 17.166 13.236V11.236C16.077 11.236 15.0913 10.8955 14.1799 10.1866L12.9521 11.7654ZM17.166 13.236C18.0796 13.236 18.9492 13.0613 19.6061 12.5455C20.3089 11.9936 20.596 11.1913 20.596 10.328H18.596C18.596 10.7367 18.4781 10.8884 18.3709 10.9725C18.2178 11.0927 17.8724 11.236 17.166 11.236V13.236ZM20.596 10.328C20.596 9.47744 20.2896 8.69355 19.5607 8.17903L18.4073 9.81297C18.4944 9.87445 18.596 9.97856 18.596 10.328H20.596ZM19.5879 8.19891C18.9461 7.71275 18.1121 7.546 17.238 7.546V9.546C17.8999 9.546 18.2299 9.67925 18.3801 9.79309L19.5879 8.19891ZM17.238 7.546H15.204V9.546H17.238V7.546ZM16.204 8.546V6.638H14.204V8.546H16.204ZM15.204 7.638H17.022V5.638H15.204V7.638ZM17.022 7.638C17.8518 7.638 18.6332 7.4365 19.2572 6.92596L17.9908 5.37804C17.8228 5.5155 17.5362 5.638 17.022 5.638V7.638ZM19.271 6.91451C19.9221 6.36207 20.218 5.60421 20.218 4.766H18.218C18.218 5.10379 18.1179 5.26993 17.977 5.38949L19.271 6.91451ZM20.218 4.766C20.218 3.96498 19.9329 3.22679 19.2722 2.71528L18.0478 4.29672C18.1311 4.36121 18.218 4.46301 18.218 4.766H20.218ZM19.2847 2.72513C18.6769 2.23892 17.8885 2.074 17.076 2.074V4.074C17.6555 4.074 17.9231 4.19708 18.0353 4.28687L19.2847 2.72513ZM17.076 2.074C15.5713 2.074 14.2349 2.60419 13.1084 3.63091L14.4556 5.10909C15.2251 4.40781 16.0847 4.074 17.076 4.074V2.074ZM14.6982 3.96918L13.9422 2.24118L12.1098 3.04282L12.8658 4.77082L14.6982 3.96918ZM13.7157 3.36614C14.1023 2.99793 14.6038 2.69423 15.2457 2.47009L14.5863 0.581908C13.7162 0.885766 12.9577 1.32607 12.3363 1.91786L13.7157 3.36614ZM15.2457 2.47009C15.8937 2.24381 16.5681 2.13 17.274 2.13V0.129999C16.3479 0.129999 15.4503 0.280191 14.5863 0.581908L15.2457 2.47009ZM17.274 2.13C18.453 2.13 19.2239 2.39837 19.7181 2.80339L20.9859 1.25661C20.0161 0.461634 18.735 0.129999 17.274 0.129999V2.13ZM19.7257 2.80962C20.19 3.18253 20.45 3.70028 20.45 4.496H22.45C22.45 3.17972 21.978 2.05346 20.9783 1.25038L19.7257 2.80962ZM20.45 4.496C20.45 5.00133 20.3245 5.40232 20.0989 5.73686L21.7571 6.85514C22.2275 6.15768 22.45 5.35867 22.45 4.496H20.45ZM20.0989 5.73686C19.8701 6.07612 19.5643 6.32008 19.1508 6.47722L19.8612 8.34678C20.6477 8.04792 21.2899 7.54788 21.7571 6.85514L20.0989 5.73686ZM19.2375 8.37529C19.7792 8.52624 20.1506 8.78693 20.4118 9.14039L22.0202 7.95161C21.4654 7.20107 20.6968 6.70576 19.7745 6.44871L19.2375 8.37529ZM20.4181 9.14883C20.6755 9.48953 20.828 9.92901 20.828 10.526H22.828C22.828 9.56299 22.5725 8.68247 22.0139 7.94317L20.4181 9.14883ZM20.828 10.526C20.828 11.378 20.537 11.976 19.9751 12.4305L21.2329 13.9855C22.303 13.12 22.828 11.93 22.828 10.526H20.828ZM19.9821 12.4249C19.3985 12.8884 18.523 13.18 17.238 13.18V15.18C18.809 15.18 20.1775 14.8236 21.2259 13.9911L19.9821 12.4249Z" fill="white"/>
</svg>
