<svg width="24" height="16" viewBox="0 0 24 16" fill="none" xmlns="http://www.w3.org/2000/svg">
<path d="M6.51703 14.18C5.01703 14.18 3.87103 13.616 3.07903 12.488C2.28703 11.348 1.89103 9.728 1.89103 7.628C1.89103 5.504 2.28703 3.89 3.07903 2.786C3.87103 1.682 5.01703 1.13 6.51703 1.13C8.02903 1.13 9.17503 1.682 9.95503 2.786C10.747 3.89 11.143 5.498 11.143 7.61C11.143 9.722 10.747 11.348 9.95503 12.488C9.16303 13.616 8.01703 14.18 6.51703 14.18ZM6.51703 12.29C7.33303 12.29 7.93303 11.918 8.31703 11.174C8.71303 10.418 8.91103 9.23 8.91103 7.61C8.91103 6.002 8.71303 4.838 8.31703 4.118C7.93303 3.386 7.33303 3.02 6.51703 3.02C5.71303 3.02 5.11303 3.386 4.71703 4.118C4.32103 4.838 4.12303 6.002 4.12303 7.61C4.12303 9.23 4.32103 10.418 4.71703 11.174C5.11303 11.918 5.71303 12.29 6.51703 12.29ZM18.372 14V11.588H12.846V9.896L18.768 1.31H20.676V9.68H22.458V11.588H20.676V14H18.372ZM18.372 9.68V4.838L15.06 9.68H18.372Z" fill="white"/>
<path d="M3.07903 12.488L2.25776 13.0586L2.26062 13.0626L3.07903 12.488ZM3.07903 2.786L2.26649 2.20309L3.07903 2.786ZM9.95503 2.786L9.13829 3.36305L9.14249 3.36891L9.95503 2.786ZM9.95503 12.488L10.7735 13.0626L10.7763 13.0586L9.95503 12.488ZM8.31703 11.174L7.43118 10.71L7.42841 10.7154L8.31703 11.174ZM8.31703 4.118L7.43148 4.58255L7.43606 4.59128L7.44082 4.59992L8.31703 4.118ZM4.71703 4.118L5.59327 4.59993L5.59657 4.59382L4.71703 4.118ZM4.71703 11.174L3.83118 11.638L3.83428 11.6438L4.71703 11.174ZM6.51703 13.18C5.30912 13.18 4.48365 12.7483 3.89744 11.9134L2.26062 13.0626C3.25841 14.4837 4.72494 15.18 6.51703 15.18V13.18ZM3.90029 11.9174C3.27034 11.0107 2.89103 9.62228 2.89103 7.628H0.891031C0.891031 9.83372 1.30372 11.6853 2.25777 13.0586L3.90029 11.9174ZM2.89103 7.628C2.89103 5.60356 3.27271 4.23157 3.89157 3.36891L2.26649 2.20309C1.30136 3.54843 0.891031 5.40444 0.891031 7.628H2.89103ZM3.89157 3.36891C4.47413 2.55685 5.30031 2.13 6.51703 2.13V0.129999C4.73376 0.129999 3.26793 0.807147 2.26649 2.20309L3.89157 3.36891ZM6.51703 2.13C7.74897 2.13 8.57011 2.55881 9.13831 3.36303L10.7718 2.20897C9.77995 0.805188 8.30909 0.129999 6.51703 0.129999V2.13ZM9.14249 3.36891C9.76191 4.23233 10.143 5.59903 10.143 7.61H12.143C12.143 5.39697 11.7322 3.54767 10.7676 2.20309L9.14249 3.36891ZM10.143 7.61C10.143 9.61771 9.76318 11.0115 9.13377 11.9174L10.7763 13.0586C11.7309 11.6845 12.143 9.82629 12.143 7.61H10.143ZM9.13662 11.9134C8.55041 12.7483 7.72494 13.18 6.51703 13.18V15.18C8.30912 15.18 9.77565 14.4837 10.7734 13.0626L9.13662 11.9134ZM6.51703 13.29C7.08165 13.29 7.62434 13.1595 8.10597 12.8609C8.58616 12.5632 8.94624 12.1352 9.20565 11.6326L7.42841 10.7154C7.30382 10.9568 7.1719 11.0868 7.05209 11.1611C6.93372 11.2345 6.76841 11.29 6.51703 11.29V13.29ZM9.20286 11.638C9.7148 10.6607 9.91103 9.27106 9.91103 7.61H7.91103C7.91103 9.18894 7.71126 10.1753 7.4312 10.71L9.20286 11.638ZM9.91103 7.61C9.91103 5.96595 9.71653 4.5875 9.19325 3.63608L7.44082 4.59992C7.70953 5.0885 7.91103 6.03805 7.91103 7.61H9.91103ZM9.20258 3.65345C8.94143 3.15564 8.57975 2.73357 8.09979 2.4408C7.61912 2.14758 7.07869 2.02 6.51703 2.02V4.02C6.77137 4.02 6.93895 4.07541 7.05827 4.1482C7.17831 4.22143 7.30863 4.34836 7.43148 4.58255L9.20258 3.65345ZM6.51703 2.02C5.9583 2.02 5.42167 2.14897 4.94327 2.4408C4.4667 2.73151 4.10401 3.14952 3.83749 3.64218L5.59657 4.59382C5.72605 4.35448 5.86137 4.22349 5.98479 4.1482C6.10639 4.07403 6.27176 4.02 6.51703 4.02V2.02ZM3.84082 3.63608C3.31753 4.5875 3.12303 5.96595 3.12303 7.61H5.12303C5.12303 6.03805 5.32453 5.08849 5.59325 4.59992L3.84082 3.63608ZM3.12303 7.61C3.12303 9.27106 3.31926 10.6607 3.8312 11.638L5.60286 10.71C5.3228 10.1753 5.12303 9.18894 5.12303 7.61H3.12303ZM3.83428 11.6438C4.09912 12.1414 4.4603 12.5653 4.93709 12.8609C5.41642 13.1581 5.9553 13.29 6.51703 13.29V11.29C6.27476 11.29 6.11164 11.2359 5.99097 11.1611C5.86777 11.0847 5.73095 10.9506 5.59978 10.7042L3.83428 11.6438ZM18.372 14H17.372V15H18.372V14ZM18.372 11.588H19.372V10.588H18.372V11.588ZM12.846 11.588H11.846V12.588H12.846V11.588ZM12.846 9.896L12.0228 9.32823L11.846 9.58458V9.896H12.846ZM18.768 1.31V0.309999H18.2429L17.9448 0.742226L18.768 1.31ZM20.676 1.31H21.676V0.309999H20.676V1.31ZM20.676 9.68H19.676V10.68H20.676V9.68ZM22.458 9.68H23.458V8.68H22.458V9.68ZM22.458 11.588V12.588H23.458V11.588H22.458ZM20.676 11.588V10.588H19.676V11.588H20.676ZM20.676 14V15H21.676V14H20.676ZM18.372 9.68V10.68H19.372V9.68H18.372ZM18.372 4.838H19.372V1.6048L17.5466 4.27343L18.372 4.838ZM15.06 9.68L14.2346 9.11543L13.1644 10.68H15.06V9.68ZM19.372 14V11.588H17.372V14H19.372ZM18.372 10.588H12.846V12.588H18.372V10.588ZM13.846 11.588V9.896H11.846V11.588H13.846ZM13.6692 10.4638L19.5912 1.87777L17.9448 0.742226L12.0228 9.32823L13.6692 10.4638ZM18.768 2.31H20.676V0.309999H18.768V2.31ZM19.676 1.31V9.68H21.676V1.31H19.676ZM20.676 10.68H22.458V8.68H20.676V10.68ZM21.458 9.68V11.588H23.458V9.68H21.458ZM22.458 10.588H20.676V12.588H22.458V10.588ZM19.676 11.588V14H21.676V11.588H19.676ZM20.676 13H18.372V15H20.676V13ZM19.372 9.68V4.838H17.372V9.68H19.372ZM17.5466 4.27343L14.2346 9.11543L15.8854 10.2446L19.1974 5.40257L17.5466 4.27343ZM15.06 10.68H18.372V8.68H15.06V10.68Z" fill="white"/>
</svg>
