<svg xmlns="http://www.w3.org/2000/svg" fill="none" width="31" height="31" viewBox="0 0 31 31">
  <path fill="#040724" d="M5.05 6.68.42 2.06A1.16 1.16 0 0 1 2.06.42l28.52 28.52a1.16 1.16 0 1 1-1.64 1.64l-5.05-5.06h-3.77a4.63 4.63 0 0 1-9.24.28v-.28H3.58a1.93 1.93 0 0 1-1.77-2.7l2.12-4.86v-6.32c0-1.78.4-3.46 1.1-4.96Zm16.52 16.53L6.81 8.45a9.28 9.28 0 0 0-.56 3.2v6.79L4.18 23.2h17.4Zm-3.76 2.31H13.2a2.31 2.31 0 0 0 4.61.23l.01-.23ZM24.75 18.44l1.1 2.5 3.36 3.37a1.92 1.92 0 0 0-.02-1.49l-2.13-4.86v-6.7a11.55 11.55 0 0 0-19.2-8.3L9.5 4.58a9.23 9.23 0 0 1 15.25 6.72v7.13Z"/>
</svg>