<svg xmlns="http://www.w3.org/2000/svg" fill="none" width="37" height="37" viewBox="0 0 37 37">
  <path fill="#040724" d="M4.63 27.75h11.56v2.31H4.62v-2.31ZM4.63 20.81h11.56v2.32H4.62V20.8ZM30.06 16.19H6.94a2.31 2.31 0 0 1-2.32-2.32V6.95a2.31 2.31 0 0 1 2.32-2.32h23.12a2.31 2.31 0 0 1 2.32 2.32v6.93a2.31 2.31 0 0 1-2.32 2.32ZM6.94 6.94v6.93h23.12V6.95H6.94ZM30.06 32.38h-6.93a2.31 2.31 0 0 1-2.32-2.32v-6.93a2.31 2.31 0 0 1 2.32-2.32h6.93a2.31 2.31 0 0 1 2.32 2.32v6.93a2.31 2.31 0 0 1-2.32 2.32Zm-6.93-9.26v6.94h6.93v-6.93h-6.93Z"/>
</svg>