<svg width="65" height="65" viewBox="0 0 65 65" fill="none" xmlns="http://www.w3.org/2000/svg">
<circle cx="32.5" cy="32.5" r="32" stroke="#040404"/>
<path d="M25.5609 36.7812L24.0421 36.7892C23.0914 36.7928 22.3514 37.6273 22.4701 38.5768L22.9662 38.5148M25.5609 36.7812L22.9662 38.5148M25.5609 36.7812C25.5647 36.806 25.5686 36.8309 25.5725 36.8558L26.0665 36.7786L26.0639 36.2786L25.9885 36.279C24.467 26.5394 24.2399 25.0001 23.9703 23.4682C23.8479 22.7728 23.7168 22.0789 23.4519 20.6199C23.4509 20.6142 23.4517 20.6092 23.4503 20.6048C23.4377 20.5649 23.2444 20.582 19.791 20.582C19.3542 20.582 19 20.2279 19 19.791C19 19.3542 19.3542 19 19.791 19H23.4065C24.1941 19 24.8679 19.5625 25.0085 20.3373L25.5351 23.2373L32.0598 23.2487V23.2495H32.5598L32.5607 22.7495L32.5598 22.7495V21.5835C32.5598 20.6533 33.3165 19.8965 34.2468 19.8965H35.8273C36.7578 19.8965 37.5148 20.6535 37.5148 21.584V23.2581L44.0633 23.2694C45.1022 23.2712 45.9473 24.1179 45.9473 25.1567V35.875C45.9473 37.3 44.8776 38.3746 43.4593 38.3746C34.6621 38.3746 29.8178 38.3707 27.2894 38.3659L25.5609 36.7812ZM22.9662 38.5148C22.8849 37.8642 23.392 37.2916 24.044 37.2891L24.0447 37.2891L26.0691 37.2786L26.6502 37.2756L26.5605 36.7014C24.9692 26.5178 24.7383 24.9482 24.4636 23.3863C24.3415 22.6922 24.2107 21.9996 23.948 20.5532M22.9662 38.5148L23.948 20.5532M23.948 20.5532C23.9429 20.5059 23.9252 20.4081 23.8549 20.31C23.7731 20.1959 23.668 20.1466 23.6125 20.1259C23.5578 20.1056 23.5091 20.0977 23.4838 20.0941C23.3971 20.0818 23.2568 20.0799 23.0555 20.0789C22.8511 20.0779 22.5408 20.0785 22.0726 20.0795C21.5411 20.0805 20.806 20.082 19.791 20.082C19.6303 20.082 19.5 19.9517 19.5 19.791C19.5 19.6303 19.6303 19.5 19.791 19.5H23.4065C23.9524 19.5 24.4191 19.8896 24.5165 20.4266L24.5165 20.4267L25.0431 23.3266L25.1175 23.7366L25.5342 23.7373L32.5589 23.7495L33.0598 23.7504V23.2495V21.5835C33.0598 20.9294 33.5927 20.3965 34.2468 20.3965H35.8273C36.4817 20.3965 37.0148 20.9296 37.0148 21.584V23.2581V23.7572L37.514 23.7581L44.0624 23.7694C44.8255 23.7707 45.4473 24.3936 45.4473 25.1567V35.875C45.4473 37.0261 44.5993 37.8746 43.4593 37.8746C34.9485 37.8746 30.1377 37.871 27.5445 37.8664C27.335 37.866 27.1401 37.8656 26.9588 37.8653C26.9373 37.8604 26.9115 37.8557 26.9019 37.8543C26.8949 37.8535 26.8835 37.8523 26.8787 37.8519C26.8696 37.8512 26.8621 37.8508 26.8584 37.8506C26.8503 37.8502 26.8425 37.85 26.8369 37.8498C26.8146 37.8493 26.7785 37.8489 26.7356 37.8487C26.386 37.8464 25.2891 37.8485 24.9272 37.8524C24.8826 37.8529 24.8453 37.8534 24.8214 37.8541L24.8007 37.8548L24.7854 37.8557L24.7852 37.8557C24.7814 37.856 24.7664 37.857 24.7481 37.8596C24.7407 37.8608 24.7243 37.8639 24.7074 37.8676C24.512 37.8687 24.3007 37.8699 24.0723 37.8711C24.0542 37.8701 24.0338 37.8699 24.0118 37.8714L24.0111 37.8714L24.0107 37.8714C23.9579 37.875 23.8954 37.8875 23.8297 37.9187C23.6975 37.9815 23.6271 38.0837 23.5933 38.1535C23.5623 38.2175 23.5522 38.2733 23.5484 38.2981C23.5409 38.3474 23.5423 38.3884 23.5427 38.3999L23.5427 38.4005C23.5443 38.447 23.5531 38.5199 23.5645 38.6128C23.5764 38.7105 23.5953 38.8605 23.6241 39.089C23.6556 39.3394 23.6991 39.6841 23.7582 40.1576C23.757 40.1891 23.7588 40.2223 23.7644 40.2569C23.7876 40.3997 23.8645 40.4934 23.9162 40.5418C24.0009 40.6211 24.0914 40.6489 24.1077 40.6539L24.1092 40.6543C24.1588 40.6699 24.2008 40.6739 24.2046 40.6744C24.218 40.6759 24.2292 40.6766 24.2353 40.677C24.2692 40.679 24.335 40.6797 24.4524 40.6803C24.7049 40.6815 25.2693 40.6821 26.5167 40.6823C27.6848 40.6825 29.4529 40.6823 32.127 40.6822C35.167 40.6819 39.3779 40.6817 45.209 40.6817C45.3697 40.6817 45.5 40.812 45.5 40.9727C45.5 41.1334 45.3697 41.2637 45.209 41.2637H43.5601H42.7402L43.1156 41.9926C43.9361 43.5857 42.7722 45.5 40.9727 45.5C39.1724 45.5 38.0095 43.585 38.8297 41.9926L39.2051 41.2637H38.3852H30.8512H30.0313L30.4067 41.9926C31.2271 43.5856 30.0633 45.5 28.2637 45.5C26.4634 45.5 25.3006 43.585 26.1207 41.9926L26.4961 41.2637H25.6762H24.2724C23.7242 41.2637 23.2585 40.8526 23.1904 40.3086C23.1904 40.3086 23.1904 40.3086 23.1904 40.3086L22.9662 38.5148L23.948 20.5532ZM24.1424 39.6896C24.1424 39.6896 24.1206 39.6959 24.1063 39.7003C24.116 39.6971 24.1225 39.6952 24.1242 39.6948L24.1246 39.6947C24.1375 39.691 24.1424 39.6896 24.1424 39.6896ZM24.191 37.892C24.1854 37.8903 24.1774 37.888 24.1674 37.8855C24.2056 37.8943 24.2244 37.9032 24.2112 37.8986L24.2054 37.8966L24.191 37.892ZM38.2522 28.582L39.1052 27.7285H37.8986H36.7239C36.5632 27.7285 36.4328 27.5982 36.4328 27.4375V21.584C36.4328 21.2497 36.1617 20.9785 35.8274 20.9785H34.2468C34.1206 20.9785 34.0033 21.0172 33.9063 21.0835H33.6418V21.5835V27.4375C33.6418 27.5982 33.5115 27.7285 33.3508 27.7285H32.1761H30.9695L31.8224 28.582L34.2878 31.0488L34.2878 31.0488C34.7019 31.4631 35.3728 31.4631 35.7869 31.0488L35.7869 31.0488L38.2522 28.582ZM33.0599 24.8316V24.3324L44.0606 24.8514L44.0615 24.3514L44.0614 24.3514L37.5157 24.3401L37.0149 24.3393V24.8401V26.6465V27.1465H37.5149H38.8353C39.4518 27.1465 39.7618 27.8949 39.3261 28.3309L39.6797 28.6844L39.3261 28.3309L36.1986 31.4603C35.5567 32.1025 34.518 32.1025 33.8762 31.4603L30.7487 28.3309C30.7486 28.3309 30.7486 28.3309 30.7486 28.3309C30.3128 27.8947 30.6232 27.1465 31.2394 27.1465H32.5599H33.0599V26.6465V24.8316ZM28.2636 44.918C29.2716 44.918 30.0908 44.0987 30.0908 43.0908C30.0908 42.083 29.2717 41.2636 28.2637 41.2636C27.2558 41.2636 26.4365 42.0829 26.4365 43.0908C26.4365 44.0987 27.2557 44.918 28.2636 44.918ZM40.9727 44.918C41.9806 44.918 42.7998 44.0987 42.7998 43.0908C42.7998 42.083 41.9806 41.2636 40.9727 41.2636C39.9647 41.2636 39.1455 42.0829 39.1455 43.0908C39.1455 44.0987 39.9647 44.918 40.9727 44.918Z" stroke="#040404"/>
</svg>
