<svg width="100" height="100" viewBox="0 0 100 100" fill="none" xmlns="http://www.w3.org/2000/svg">
<rect width="100" height="100" fill="#E5E5E5"/>
<g clip-path="url(#clip0)">
<rect width="1440" height="5229" transform="translate(-232 -3440)" fill="#F4F4F4"/>
<rect x="-232" y="-243" width="1440" height="998" fill="#1D1B1B"/>
<rect x="-76" y="-62" width="1100" height="748" rx="4" fill="white"/>
<circle cx="50" cy="50" r="50" fill="#1D1B1B"/>
<path d="M39.36 62.48C46.84 62.48 50 55.36 50 48.68C50 41.96 46.84 34.92 39.36 34.92C31.84 34.92 28.68 41.96 28.68 48.68C28.68 55.36 31.84 62.48 39.36 62.48ZM39.36 58.32C35 58.32 33.44 53.76 33.44 48.68C33.44 43.56 35 39.08 39.36 39.08C43.72 39.08 45.24 43.56 45.24 48.68C45.24 53.76 43.68 58.32 39.36 58.32ZM62.7275 62.48C68.9275 62.48 72.8075 59.24 72.8075 54.68C72.8075 50.56 69.1675 48.48 66.6075 48.2C69.3275 47.76 72.3675 45.68 72.3675 42.08C72.3675 37.64 68.5275 34.92 62.7675 34.92C58.3275 34.92 55.0875 36.68 53.0075 39.12L55.4075 42.04C57.3275 40.08 59.5675 39.08 62.3275 39.08C65.2875 39.08 67.7275 40.36 67.7275 42.8C67.7275 45.24 65.3675 46.32 62.2075 46.32C61.1675 46.32 59.6075 46.32 59.1675 46.28V50.52C59.5675 50.48 61.0875 50.44 62.2075 50.44C66.0475 50.44 68.1275 51.6 68.1275 54.24C68.1275 56.68 66.0875 58.32 62.5675 58.32C59.7275 58.32 56.9275 57.08 55.2075 55.08L52.6475 58.16C54.4875 60.56 58.0075 62.48 62.7275 62.48Z" fill="white"/>
</g>
<defs>
<clipPath id="clip0">
<rect width="1440" height="5229" fill="white" transform="translate(-232 -3440)"/>
</clipPath>
</defs>
</svg>
