<svg width="14" height="14" viewBox="0 0 14 14" fill="none" xmlns="http://www.w3.org/2000/svg">
<path fill-rule="evenodd" clip-rule="evenodd" d="M13.4 6.99074C13.4 7.42356 13.3559 7.85577 13.2694 8.27709C13.185 8.68839 13.06 9.0922 12.8962 9.47821C12.7363 9.8574 12.5378 10.2228 12.3059 10.5636C12.0775 10.9022 11.8143 11.2199 11.5252 11.5095C11.2355 11.7978 10.9168 12.0602 10.5783 12.2896C10.2364 12.5199 9.8705 12.7181 9.49109 12.8788C9.10452 13.0417 8.69978 13.1665 8.28883 13.2508C7.86696 13.3375 7.43316 13.3818 6.99972 13.3818C6.56595 13.3818 6.13218 13.3375 5.71091 13.2508C5.29933 13.1665 4.89462 13.0417 4.50835 12.8788C4.12896 12.7181 3.76267 12.5199 3.42079 12.2896C3.08234 12.0602 2.76357 11.7978 2.47449 11.5095C2.18511 11.2199 1.92196 10.9022 1.6932 10.5636C1.46256 10.2228 1.26379 9.85738 1.10317 9.47821C0.939387 9.0922 0.814086 8.68837 0.729391 8.27709C0.643769 7.85577 0.600006 7.42356 0.600006 6.99074C0.600006 6.55759 0.643744 6.12445 0.729416 5.70406C0.814111 5.29276 0.939412 4.88833 1.10319 4.50293C1.26381 4.12347 1.46259 3.75774 1.69322 3.41695C1.92198 3.07806 2.18514 2.76098 2.47452 2.47106C2.7636 2.1827 3.08236 1.9209 3.42081 1.69185C3.7627 1.46059 4.12898 1.26246 4.50837 1.10142C4.89465 0.938175 5.29933 0.813055 5.71093 0.729433C6.1322 0.643309 6.56597 0.599609 6.99974 0.599609C7.43319 0.599609 7.86696 0.643309 8.28885 0.729433C8.6998 0.81308 9.10452 0.9382 9.49112 1.10142C9.8705 1.26243 10.2365 1.46059 10.5783 1.69185C10.9168 1.9209 11.2356 2.1827 11.5253 2.47106C11.8144 2.76098 12.0775 3.07806 12.3059 3.41695C12.5378 3.75774 12.7363 4.1235 12.8962 4.50293C13.06 4.88833 13.185 5.29276 13.2694 5.70406C13.3559 6.12445 13.4 6.55759 13.4 6.99074ZM4.6677 2.05414C3.14354 2.77285 2.00598 4.17527 1.65127 5.86542C1.79536 5.86667 4.07298 5.89538 6.69717 5.19914C5.75119 3.52085 4.74052 2.15122 4.6677 2.05414ZM7.15 6.03957C4.3358 6.88087 1.63534 6.82033 1.53847 6.81661C1.53689 6.87527 1.53408 6.93205 1.53408 6.99073C1.53408 8.39282 2.06379 9.67104 2.93447 10.6375C2.93259 10.6347 4.42831 7.98497 7.37783 7.03255C7.44907 7.00884 7.52159 6.9876 7.59346 6.96702C7.45629 6.65684 7.30656 6.34602 7.15 6.03957ZM10.6093 2.89455C9.64701 2.04727 8.38353 1.53333 6.9997 1.53333C6.55561 1.53333 6.12464 1.58701 5.71182 1.68624C5.79368 1.7961 6.82031 3.15607 7.75504 4.86991C9.81735 4.09788 10.5958 2.91451 10.6093 2.89455ZM7.96602 7.87138C7.95385 7.87541 7.94168 7.87889 7.92978 7.88324C4.70498 9.00583 3.65187 11.2682 3.64048 11.2929C4.56836 12.0134 5.73217 12.4481 6.99974 12.4481C7.75663 12.4481 8.4776 12.2942 9.13357 12.0156C9.05263 11.5388 8.73512 9.86736 7.96602 7.87138ZM10.0539 11.5169C11.2812 10.69 12.1528 9.37681 12.3959 7.85575C12.2834 7.81955 10.7543 7.33616 8.99009 7.61859C9.707 9.58587 9.99829 11.188 10.0539 11.5169ZM8.17573 5.68317C8.30259 5.94344 8.42543 6.20834 8.53886 6.47456C8.57919 6.57007 8.61857 6.6637 8.657 6.7573C10.5346 6.52137 12.3844 6.91831 12.4635 6.93452C12.451 5.64072 11.9875 4.4533 11.2206 3.52368C11.2103 3.53831 10.3337 4.80312 8.17573 5.68317Z" fill="#33354D"/>
</svg>
