<svg width="60" height="60" viewBox="0 0 60 60" fill="none" xmlns="http://www.w3.org/2000/svg">
<path d="M11.0074 59.9998C15.2737 60.0032 19.156 57.5354 20.9653 53.6707C22.7751 49.8064 22.185 45.243 19.4522 41.9661L21.7101 39.7068L20.2966 38.2928L18.0387 40.5521C14.3097 37.4412 8.98277 37.1453 4.93262 39.824C0.882481 42.5027 -0.932226 47.5218 0.468095 52.1727C1.86842 56.8235 6.15235 60.0047 11.0074 59.9998ZM11.0074 39.9998C15.9761 39.9998 20.0038 44.0296 20.0038 48.9998C20.0038 53.9705 15.9761 57.9998 11.0074 57.9998C6.03912 57.9998 2.01094 53.9705 2.01094 48.9998C2.01679 44.0315 6.04107 40.0057 11.0074 39.9998Z" fill="#1E2348"/>
<path d="M11.0074 22.0004C13.5781 22.0019 16.0673 21.0986 18.0387 19.4487L20.2966 21.7075L21.7101 20.2934L19.4522 18.0346C22.7434 14.0737 22.8449 8.35785 19.6958 4.28266C16.5466 0.207462 10.9917 -1.13433 6.33099 1.05463C1.67025 3.24359 -0.846326 8.3764 0.275786 13.4033C1.39839 18.4301 5.85901 22.0034 11.0074 22.0004ZM11.0074 2.00043C15.9761 2.00043 20.0038 6.03021 20.0038 11.0004C20.0038 15.9711 15.9761 20.0004 11.0074 20.0004C6.03911 20.0004 2.01093 15.9711 2.01093 11.0004C2.01679 6.03217 6.04107 2.00629 11.0074 2.00043Z" fill="#1E2348"/>
<path d="M40.9954 29.999C40.9993 24.0484 36.2717 19.1734 30.3259 18.9971C24.38 18.8208 19.3717 23.4073 19.0232 29.3477C18.6747 35.2886 23.1119 40.4292 29.0373 40.9502C29.356 40.9815 29.6772 40.999 29.9998 40.999C30.3229 40.999 30.6436 40.9815 30.9628 40.9502C36.6354 40.4468 40.9876 35.6968 40.9954 29.999ZM34.9978 37.2315C33.781 38.2124 32.3026 38.814 30.7466 38.9614C30.4996 38.9824 30.2522 38.999 29.9998 38.999C29.748 38.999 29.5 38.9824 29.2535 38.9614C27.6975 38.814 26.2191 38.2124 25.0018 37.2315V37.1651C25.6178 35.3994 26.6232 33.7945 27.944 32.4702L28.5868 31.8272C28.9768 31.4365 28.9768 30.8037 28.5868 30.4131C27.8059 29.6323 27.8054 28.3657 28.5863 27.5845C29.3672 26.8037 30.6329 26.8037 31.4138 27.5845C32.1942 28.3657 32.1942 29.6323 31.4133 30.4131C31.0233 30.8037 31.0233 31.4365 31.4133 31.8272L32.0561 32.4702C33.3764 33.7945 34.3819 35.3994 34.9978 37.1651V37.2315ZM33.4696 31.0562L33.4457 31.0313C34.4346 29.3511 34.068 27.2027 32.5789 25.9449C31.0892 24.6875 28.9109 24.6875 27.4212 25.9449C25.9316 27.2027 25.5655 29.3511 26.5544 31.0313L26.5305 31.0562C25.1321 32.4688 24.0398 34.1553 23.3228 36.0093C20.0726 32.4082 20.2605 26.8784 23.7474 23.5069C27.2348 20.1348 32.7653 20.1348 36.2522 23.5069C39.7396 26.8784 39.9275 32.4082 36.6773 36.0093C35.9598 34.1553 34.868 32.4688 33.4696 31.0562Z" fill="#1E2348"/>
<path d="M11.0074 16C13.768 16 16.0054 13.7617 16.0054 11C16.0054 8.23877 13.768 6 11.0074 6C8.24728 6 6.0094 8.23877 6.0094 11C6.01282 13.7603 8.24874 15.9971 11.0074 16ZM11.0074 8C12.664 8 14.0062 9.34326 14.0062 11C14.0062 12.6572 12.664 14 11.0074 14C9.35133 14 8.0086 12.6572 8.0086 11C8.0086 9.34326 9.35133 8 11.0074 8Z" fill="#1E2348"/>
<path d="M7.009 54H15.0058C15.5578 54 16.0054 53.5522 16.0054 53V45C16.0054 44.4478 15.5578 44 15.0058 44H7.009C6.45697 44 6.0094 44.4478 6.0094 45V53C6.0094 53.5522 6.45697 54 7.009 54ZM8.0086 46H14.0062V52H8.0086V46Z" fill="#1E2348"/>
<path d="M49.8599 6.50195C49.6676 6.21045 49.3416 6.03516 48.9921 6.03516C48.6431 6.03516 48.3171 6.21045 48.1248 6.50195L44.1264 13.5019C43.9477 13.812 43.9477 14.1934 44.1268 14.5029C44.306 14.8125 44.6364 15.0029 44.9937 15.0019H52.9905C53.3483 15.0029 53.6787 14.8125 53.8578 14.5029C54.037 14.1934 54.037 13.812 53.8583 13.5019L49.8599 6.50195ZM46.7161 13.002L48.9921 9.01807L51.2685 13.002H46.7161Z" fill="#1E2348"/>
<path d="M48.9923 59.9998C53.8477 60.0047 58.1317 56.8235 59.532 52.1727C60.9323 47.5218 59.1176 42.5027 55.0675 39.824C51.0168 37.1453 45.6903 37.4412 41.9614 40.5521L39.703 38.2928L38.2895 39.7068L40.5479 41.9661C37.8146 45.243 37.225 49.8064 39.0343 53.6707C40.8441 57.5354 44.7264 60.0032 48.9923 59.9998ZM48.9923 39.9998C53.961 39.9998 57.9887 44.0296 57.9887 48.9998C57.9887 53.9705 53.961 57.9998 48.9923 57.9998C44.024 57.9998 39.9958 53.9705 39.9958 48.9998C40.0017 44.0315 44.026 40.0057 48.9923 39.9998Z" fill="#1E2348"/>
<path d="M48.3928 54.8C48.7481 55.0666 49.2367 55.0666 49.592 54.8L53.5904 51.8C53.8423 51.6111 53.9902 51.3147 53.9902 50.9998V46.9998C53.9902 46.6853 53.8423 46.3889 53.5904 46.1999L49.592 43.2C49.2367 42.9333 48.7481 42.9333 48.3928 43.2L44.3944 46.1999C44.1425 46.3889 43.9941 46.6853 43.9941 46.9998V50.9998C43.9941 51.3147 44.1425 51.6111 44.3944 51.8L48.3928 54.8ZM45.9933 47.4998L48.9921 45.2498L51.991 47.4998V50.4998L48.9921 52.7498L45.9933 50.4998V47.4998Z" fill="#1E2348"/>
<path d="M8.00854 25H10.0078V27H8.00854V25Z" fill="#1E2348"/>
<path d="M8.00854 29H10.0078V31H8.00854V29Z" fill="#1E2348"/>
<path d="M8.00854 33H10.0078V35H8.00854V33Z" fill="#1E2348"/>
<path d="M52.9906 25H54.9899V27H52.9906V25Z" fill="#1E2348"/>
<path d="M52.9906 29H54.9899V31H52.9906V29Z" fill="#1E2348"/>
<path d="M52.9906 33H54.9899V35H52.9906V33Z" fill="#1E2348"/>
<path d="M25.0018 5H27.0011V7H25.0018V5Z" fill="#1E2348"/>
<path d="M29.0002 5H30.9995V7H29.0002V5Z" fill="#1E2348"/>
<path d="M32.9985 5H34.9978V7H32.9985V5Z" fill="#1E2348"/>
<path d="M25.0018 53H27.0011V55H25.0018V53Z" fill="#1E2348"/>
<path d="M29.0002 53H30.9995V55H29.0002V53Z" fill="#1E2348"/>
<path d="M32.9985 53H34.9978V55H32.9985V53Z" fill="#1E2348"/>
<path d="M48.9922 0C45.006 0.000488287 41.3317 2.15967 39.3901 5.64258C37.4485 9.12549 37.5436 13.3872 39.638 16.7803L39.0084 20.8472C38.964 21.1357 39.0474 21.4292 39.2373 21.6509C39.4272 21.8726 39.7044 22 39.9958 22C40.0661 22.0005 40.1363 21.9932 40.2047 21.978L44.5404 21.0483C45.9402 21.6768 47.4576 22.001 48.9922 22C55.065 22 59.9878 17.0752 59.9878 11C59.9878 4.92529 55.065 0 48.9922 0ZM48.9922 20C47.6417 19.9995 46.3087 19.6919 45.0938 19.1001C44.9586 19.0342 44.8098 19 44.659 19C44.5892 19.0005 44.5189 19.0078 44.4501 19.022L41.2087 19.7222L41.6743 16.7163C41.7124 16.4683 41.6562 16.2148 41.5162 16.0063C39.2207 12.5747 39.5536 8.02099 42.3235 4.95996C45.0934 1.89893 49.5901 1.11621 53.2307 3.06152C56.8714 5.00635 58.7222 9.18017 57.7197 13.1855C56.7176 17.1909 53.1199 20.0005 48.9922 20Z" fill="#1E2348"/>
</svg>
