<svg width="54" height="60" viewBox="0 0 54 60" fill="none" xmlns="http://www.w3.org/2000/svg">
<path d="M53.1143 11.1001L50.7143 10.8001L52.2043 8.89007C52.3526 8.69685 52.4254 8.45611 52.4088 8.21306C52.3922 7.97002 52.2875 7.74138 52.1143 7.57007L49.4243 4.88008C49.2537 4.70569 49.0249 4.60016 48.7814 4.58356C48.538 4.56696 48.297 4.64047 48.1043 4.79008L46.1943 6.28008L45.8943 3.88008C45.8622 3.6373 45.7431 3.41439 45.5593 3.2526C45.3754 3.09081 45.1392 3.0011 44.8943 3.00008H41.0943C40.8494 3.0011 40.6132 3.09081 40.4293 3.2526C40.2455 3.41439 40.1265 3.6373 40.0943 3.88008L39.7943 6.28008L37.8843 4.79008C37.7613 4.69847 37.6188 4.63639 37.468 4.60865C37.3171 4.58091 37.1619 4.58824 37.0143 4.63008C32.9648 1.61102 28.0454 -0.0135526 22.9943 8.51662e-05C14.1443 8.51662e-05 4.99436 4.49008 4.99436 12.0001V26.68L0.184368 33.42C0.107033 33.5291 0.0523391 33.6525 0.0235198 33.783C-0.00529946 33.9135 -0.00765945 34.0485 0.0165795 34.18C0.0408184 34.3114 0.0911643 34.4367 0.164641 34.5483C0.238118 34.66 0.333234 34.7558 0.444368 34.83L2.99436 36.54V48C2.99436 48.2652 3.09972 48.5196 3.28726 48.7071C3.47479 48.8947 3.72915 49 3.99436 49H16.9943V59C16.9943 59.2652 17.0997 59.5196 17.2872 59.7071C17.4748 59.8946 17.7291 60 17.9943 60H41.9943C42.159 59.9991 42.321 59.9576 42.4658 59.8791C42.6106 59.8006 42.7337 59.6876 42.8243 59.55C42.9167 59.4153 42.9735 59.2593 42.9892 59.0966C43.005 58.934 42.9792 58.77 42.9143 58.62L38.0543 46.94C38.6343 44.85 41.7743 33.52 43.2343 25.0001H44.8943C45.1392 24.999 45.3754 24.9093 45.5593 24.7475C45.7431 24.5857 45.8622 24.3628 45.8943 24.1201L46.1943 21.7201L48.1043 23.2101C48.297 23.3597 48.538 23.4332 48.7814 23.4166C49.0249 23.4 49.2537 23.2944 49.4243 23.1201L52.1143 20.4301C52.2875 20.2588 52.3922 20.0301 52.4088 19.7871C52.4254 19.544 52.3526 19.3033 52.2043 19.1101L50.7143 17.2001L53.1143 16.9001C53.3571 16.8679 53.58 16.7489 53.7418 16.565C53.9036 16.3812 53.9933 16.145 53.9943 15.9001V12.1001C53.9933 11.8552 53.9036 11.6189 53.7418 11.4351C53.58 11.2512 53.3571 11.1322 53.1143 11.1001ZM36.0343 46.73C35.9723 46.9448 35.9864 47.1745 36.0743 47.38L40.4943 58H18.9943V48C18.9943 47.7348 18.889 47.4804 18.7014 47.2929C18.5139 47.1054 18.2596 47 17.9943 47H4.99436V36C4.99351 35.8353 4.95199 35.6734 4.87348 35.5286C4.79498 35.3838 4.68192 35.2606 4.54436 35.17L2.40436 33.74L6.80436 27.58C6.93051 27.4133 6.99738 27.2091 6.99436 27V12.0001C6.99436 5.74008 15.1343 2.00008 22.9943 2.00008C27.4671 1.98584 31.8318 3.37429 35.4743 5.97008L33.8743 7.57007C33.7011 7.74138 33.5964 7.97002 33.5798 8.21306C33.5632 8.45611 33.636 8.69685 33.7843 8.89007L35.2743 10.8001L32.8743 11.1001C32.6315 11.1322 32.4086 11.2512 32.2468 11.4351C32.0851 11.6189 31.9953 11.8552 31.9943 12.1001V15.9001C31.9953 16.145 32.0851 16.3812 32.2468 16.565C32.4086 16.7489 32.6315 16.8679 32.8743 16.9001L35.2743 17.2001L33.7843 19.1101C33.636 19.3033 33.5632 19.544 33.5798 19.7871C33.5964 20.0301 33.7011 20.2588 33.8743 20.4301L36.5643 23.1201C36.7349 23.2944 36.9638 23.4 37.2072 23.4166C37.4506 23.4332 37.6916 23.3597 37.8843 23.2101L39.7943 21.7201L40.0943 24.1201C40.1265 24.3628 40.2455 24.5857 40.4293 24.7475C40.6132 24.9093 40.8494 24.999 41.0943 25.0001H41.2043C39.5843 34.23 36.0743 46.6 36.0343 46.73ZM51.9943 15.0201L49.6243 15.3201C49.4386 15.3438 49.2633 15.4192 49.1183 15.5376C48.9734 15.6561 48.8646 15.8128 48.8043 15.9901C48.7143 16.2301 48.6143 16.4701 48.5043 16.7001C48.4204 16.8673 48.3861 17.0551 48.4056 17.2412C48.4251 17.4272 48.4975 17.6039 48.6143 17.7501L50.0843 19.6401L48.6343 21.0901L46.7443 19.6201C46.5981 19.5033 46.4215 19.4309 46.2354 19.4114C46.0493 19.3919 45.8615 19.4261 45.6943 19.5101C45.4643 19.6201 45.2243 19.7201 44.9843 19.8101C44.8071 19.8703 44.6503 19.9791 44.5319 20.1241C44.4134 20.2691 44.338 20.4444 44.3143 20.6301L44.0143 23.0001H41.9743L41.6743 20.6301C41.6506 20.4444 41.5752 20.2691 41.4568 20.1241C41.3383 19.9791 41.1815 19.8703 41.0043 19.8101C40.7643 19.7201 40.5243 19.6201 40.2943 19.5101C40.1271 19.4261 39.9393 19.3919 39.7532 19.4114C39.5671 19.4309 39.3905 19.5033 39.2443 19.6201L37.3543 21.0901L35.9043 19.6401L37.3743 17.7501C37.4911 17.6039 37.5635 17.4272 37.583 17.2412C37.6025 17.0551 37.5682 16.8673 37.4843 16.7001C37.3743 16.4701 37.2743 16.2301 37.1843 15.9901C37.1241 15.8128 37.0152 15.6561 36.8703 15.5376C36.7253 15.4192 36.55 15.3438 36.3643 15.3201L33.9943 15.0201V12.9801L36.3643 12.6801C36.55 12.6563 36.7253 12.581 36.8703 12.4625C37.0152 12.3441 37.1241 12.1873 37.1843 12.0101C37.2743 11.7701 37.3743 11.5301 37.4843 11.3001C37.5682 11.1328 37.6025 10.9451 37.583 10.759C37.5635 10.5729 37.4911 10.3963 37.3743 10.2501L35.9043 8.36007L37.3543 6.91008L39.2443 8.38007C39.3905 8.49683 39.5671 8.56924 39.7532 8.58874C39.9393 8.60823 40.1271 8.57399 40.2943 8.49007C40.5243 8.38007 40.7643 8.28007 41.0043 8.19007C41.1815 8.12981 41.3383 8.021 41.4568 7.87604C41.5752 7.73107 41.6506 7.55577 41.6743 7.37008L41.9743 5.00008H44.0143L44.3143 7.37008C44.338 7.55577 44.4134 7.73107 44.5319 7.87604C44.6503 8.021 44.8071 8.12981 44.9843 8.19007C45.2243 8.28007 45.4643 8.38007 45.6943 8.49007C45.8615 8.57399 46.0493 8.60823 46.2354 8.58874C46.4215 8.56924 46.5981 8.49683 46.7443 8.38007L48.6343 6.91008L50.0843 8.36007L48.6143 10.2501C48.4975 10.3963 48.4251 10.5729 48.4056 10.759C48.3861 10.9451 48.4204 11.1328 48.5043 11.3001C48.6143 11.5301 48.7143 11.7701 48.8043 12.0101C48.8646 12.1873 48.9734 12.3441 49.1183 12.4625C49.2633 12.581 49.4386 12.6563 49.6243 12.6801L51.9943 12.9801V15.0201Z" fill="#1E2348"/>
<path d="M42.9943 9C42.0054 9 41.0387 9.29324 40.2165 9.84265C39.3942 10.3921 38.7534 11.1729 38.3749 12.0866C37.9965 13.0002 37.8975 14.0055 38.0904 14.9754C38.2833 15.9453 38.7595 16.8363 39.4588 17.5355C40.1581 18.2348 41.049 18.711 42.0189 18.9039C42.9888 19.0968 43.9941 18.9978 44.9077 18.6194C45.8214 18.2409 46.6023 17.6001 47.1517 16.7778C47.7011 15.9556 47.9943 14.9889 47.9943 14C47.9927 12.6744 47.4654 11.4036 46.5281 10.4662C45.5908 9.52888 44.3199 9.00159 42.9943 9ZM42.9943 17C42.401 17 41.821 16.824 41.3276 16.4944C40.8343 16.1648 40.4497 15.6962 40.2227 15.148C39.9956 14.5999 39.9362 13.9967 40.052 13.4147C40.1677 12.8328 40.4534 12.2982 40.873 11.8787C41.2926 11.4591 41.8271 11.1734 42.409 11.0576C42.991 10.9419 43.5942 11.0013 44.1424 11.2284C44.6905 11.4554 45.1591 11.8399 45.4887 12.3333C45.8184 12.8266 45.9943 13.4066 45.9943 14C45.9943 14.7956 45.6782 15.5587 45.1156 16.1213C44.553 16.6839 43.79 17 42.9943 17Z" fill="#1E2348"/>
<path d="M35.1183 29.1L32.7183 28.8L34.2063 26.888C34.3559 26.6955 34.4299 26.4551 34.4147 26.2118C34.3994 25.9685 34.2958 25.7392 34.1233 25.567L31.4293 22.873C31.2571 22.7006 31.0278 22.597 30.7845 22.5817C30.5413 22.5664 30.3008 22.6405 30.1083 22.79L28.1943 24.28L27.8943 21.88C27.865 21.637 27.7474 21.4131 27.564 21.2509C27.3807 21.0887 27.1442 20.9995 26.8993 21H23.0943C22.8506 21.0001 22.6154 21.0891 22.4327 21.2504C22.25 21.4117 22.1326 21.6342 22.1023 21.876L21.8023 24.276L19.8843 22.792C19.6919 22.6425 19.4514 22.5684 19.2081 22.5837C18.9649 22.599 18.7356 22.7026 18.5633 22.875L15.8693 25.569C15.6969 25.7412 15.5933 25.9705 15.578 26.2138C15.5627 26.4571 15.6368 26.6975 15.7863 26.89L17.2743 28.8L14.8743 29.1C14.6304 29.1295 14.4059 29.2477 14.2436 29.4321C14.0813 29.6166 13.9926 29.8543 13.9943 30.1V33.91C13.9944 34.1537 14.0835 34.389 14.2448 34.5716C14.4061 34.7543 14.6285 34.8718 14.8703 34.902L17.2703 35.202L15.7863 37.11C15.6368 37.3025 15.5627 37.5429 15.578 37.7862C15.5933 38.0294 15.6969 38.2587 15.8693 38.431L18.5633 41.125C18.7356 41.2974 18.9649 41.401 19.2081 41.4163C19.4514 41.4316 19.6919 41.3575 19.8843 41.208L21.7943 39.72L22.0943 42.12C22.1238 42.3639 22.242 42.5884 22.4265 42.7507C22.6109 42.913 22.8487 43.0017 23.0943 43H26.9043C27.148 42.9999 27.3833 42.9109 27.566 42.7495C27.7486 42.5882 27.8661 42.3658 27.8963 42.124L28.1963 39.724L30.1083 41.212C30.3008 41.3615 30.5413 41.4356 30.7845 41.4203C31.0278 41.405 31.2571 41.3014 31.4293 41.129L34.1233 38.435C34.2958 38.2627 34.3994 38.0334 34.4147 37.7902C34.4299 37.5469 34.3559 37.3065 34.2063 37.114L32.7143 35.2L35.1143 34.9C35.3574 34.8706 35.5812 34.7531 35.7434 34.5697C35.9056 34.3863 35.9949 34.1498 35.9943 33.905V30.1C35.9962 29.8549 35.908 29.6177 35.7466 29.4333C35.5851 29.249 35.3615 29.1304 35.1183 29.1ZM33.9943 33.022L31.6233 33.322C31.4374 33.3453 31.2617 33.4203 31.1164 33.5386C30.9711 33.6569 30.8619 33.8137 30.8013 33.991C30.7165 34.2347 30.6163 34.4729 30.5013 34.704C30.4189 34.8722 30.3855 35.0603 30.4048 35.2466C30.424 35.433 30.4953 35.6101 30.6103 35.758L32.0773 37.645L30.6323 39.09L28.7453 37.623C28.5982 37.5078 28.4217 37.4362 28.236 37.4163C28.0502 37.3963 27.8626 37.4288 27.6943 37.51C27.4632 37.6249 27.2251 37.7251 26.9813 37.81C26.804 37.8706 26.6473 37.9797 26.529 38.1251C26.4107 38.2704 26.3356 38.446 26.3123 38.632L26.0163 41H23.9723L23.6723 38.629C23.649 38.443 23.574 38.2674 23.4557 38.1221C23.3374 37.9767 23.1807 37.8675 23.0033 37.807C22.7596 37.7221 22.5214 37.6219 22.2903 37.507C22.1221 37.4246 21.9341 37.3911 21.7477 37.4104C21.5614 37.4297 21.3842 37.5009 21.2363 37.616L19.3493 39.083L17.9043 37.638L19.3713 35.751C19.4865 35.6038 19.5581 35.4274 19.5781 35.2416C19.598 35.0559 19.5656 34.8682 19.4843 34.7C19.3694 34.4689 19.2692 34.2307 19.1843 33.987C19.1238 33.8097 19.0146 33.6529 18.8693 33.5346C18.7239 33.4164 18.5483 33.3413 18.3623 33.318L15.9943 33.022V30.978L18.3653 30.678C18.5513 30.6547 18.7269 30.5796 18.8723 30.4613C19.0176 30.3431 19.1268 30.1863 19.1873 30.009C19.2722 29.7652 19.3724 29.5271 19.4873 29.296C19.5697 29.1277 19.6032 28.9397 19.5839 28.7534C19.5646 28.567 19.4934 28.3898 19.3783 28.242L17.9113 26.355L19.3563 24.91L21.2433 26.377C21.3912 26.4921 21.5684 26.5633 21.7547 26.5826C21.9411 26.6018 22.1291 26.5684 22.2973 26.486C22.5284 26.3711 22.7666 26.2709 23.0103 26.186C23.1877 26.1254 23.3444 26.0162 23.4627 25.8709C23.581 25.7256 23.656 25.5499 23.6793 25.364L23.9793 22.993H26.0233L26.3233 25.364C26.3466 25.5499 26.4217 25.7256 26.54 25.8709C26.6583 26.0162 26.815 26.1254 26.9923 26.186C27.2361 26.2709 27.4742 26.3711 27.7053 26.486C27.8736 26.5684 28.0616 26.6018 28.248 26.5826C28.4343 26.5633 28.6115 26.4921 28.7593 26.377L30.6463 24.91L32.0913 26.355L30.6243 28.242C30.5067 28.3891 30.433 28.5665 30.4118 28.7537C30.3906 28.9409 30.4226 29.1302 30.5043 29.3C30.6193 29.5311 30.7195 29.7692 30.8043 30.013C30.8649 30.1903 30.9741 30.3471 31.1194 30.4653C31.2647 30.5836 31.4404 30.6587 31.6263 30.682L33.9973 30.982L33.9943 33.022Z" fill="#1E2348"/>
<path d="M24.9944 27C24.0055 27 23.0388 27.2932 22.2165 27.8427C21.3943 28.3921 20.7534 29.1729 20.375 30.0866C19.9966 31.0002 19.8975 32.0055 20.0905 32.9754C20.2834 33.9453 20.7596 34.8363 21.4589 35.5355C22.1581 36.2348 23.049 36.711 24.0189 36.9039C24.9888 37.0968 25.9942 36.9978 26.9078 36.6194C27.8214 36.2409 28.6023 35.6001 29.1517 34.7778C29.7011 33.9556 29.9944 32.9889 29.9944 32C29.9928 30.6744 29.4655 29.4036 28.5282 28.4662C27.5908 27.5289 26.32 27.0016 24.9944 27ZM24.9944 35C24.401 35 23.821 34.824 23.3277 34.4944C22.8343 34.1648 22.4498 33.6962 22.2227 33.148C21.9957 32.5999 21.9363 31.9967 22.052 31.4147C22.1678 30.8328 22.4535 30.2982 22.8731 29.8787C23.2926 29.4591 23.8272 29.1734 24.4091 29.0576C24.9911 28.9419 25.5943 29.0013 26.1424 29.2284C26.6906 29.4554 27.1591 29.8399 27.4888 30.3333C27.8184 30.8266 27.9944 31.4066 27.9944 32C27.9944 32.7956 27.6783 33.5587 27.1157 34.1213C26.5531 34.6839 25.79 35 24.9944 35Z" fill="#1E2348"/>
<path d="M25.9943 16C25.9943 15.7348 26.0997 15.4804 26.2872 15.2929C26.4747 15.1054 26.7291 15 26.9943 15H29.9943V13H26.9943C26.1987 13 25.4356 13.3161 24.873 13.8787C24.3104 14.4413 23.9943 15.2043 23.9943 16V19H25.9943V16Z" fill="#1E2348"/>
</svg>
