<svg width="62" height="62" viewBox="0 0 62 62" fill="none" xmlns="http://www.w3.org/2000/svg">
<path d="M42.0002 47.9996H37.0002V44.9806C38.2406 44.052 39.2478 42.8474 39.942 41.4622C40.6363 40.077 40.9986 38.5492 41.0002 36.9997H41.5002C42.3842 37.0015 43.2359 36.6679 43.8835 36.0664C44.5312 35.4648 44.9267 34.64 44.9901 33.7584C45.0535 32.8767 44.7802 32.0038 44.2254 31.3158C43.6705 30.6277 42.8753 30.1757 42.0002 30.0508V20.9999C42.0002 19.9391 41.5788 18.9217 40.8286 18.1716C40.0785 17.4214 39.0611 17 38.0002 17H24.0002C22.9393 17 21.9219 17.4214 21.1717 18.1716C20.4216 18.9217 20.0002 19.9391 20.0002 20.9999V30.0508C19.1251 30.1757 18.3299 30.6277 17.775 31.3158C17.2201 32.0038 16.9468 32.8767 17.0103 33.7584C17.0737 34.64 17.4692 35.4648 18.1168 36.0664C18.7645 36.6679 19.6162 37.0015 20.5002 36.9997H21.0002C21.0018 38.5492 21.3641 40.077 22.0583 41.4622C22.7526 42.8474 23.7598 44.052 25.0002 44.9806V47.9996H20.0002C16.5536 48.0036 13.2492 49.3745 10.8121 51.8115C8.37501 54.2486 7.00409 57.5529 7.00012 60.9994C7.00012 61.2646 7.10548 61.519 7.29302 61.7065C7.48055 61.894 7.73491 61.9994 8.00012 61.9994H54.0002C54.2655 61.9994 54.5198 61.894 54.7073 61.7065C54.8949 61.519 55.0002 61.2646 55.0002 60.9994C54.9963 57.5529 53.6254 54.2486 51.1882 51.8115C48.7511 49.3745 45.4468 48.0036 42.0002 47.9996ZM43.0002 33.4998C43.0002 33.8976 42.8422 34.2791 42.5609 34.5604C42.2796 34.8417 41.898 34.9998 41.5002 34.9998H41.0002V31.9998H41.5002C41.898 31.9998 42.2796 32.1578 42.5609 32.4391C42.8422 32.7204 43.0002 33.102 43.0002 33.4998ZM20.5002 34.9998C20.1023 34.9998 19.7208 34.8417 19.4395 34.5604C19.1582 34.2791 19.0002 33.8976 19.0002 33.4998C19.0002 33.102 19.1582 32.7204 19.4395 32.4391C19.7208 32.1578 20.1023 31.9998 20.5002 31.9998H21.0002V34.9998H20.5002ZM22.0002 20.9999C22.0002 20.4695 22.2109 19.9608 22.5859 19.5858C22.961 19.2107 23.4697 19 24.0002 19H38.0002C38.5306 19 39.0393 19.2107 39.4144 19.5858C39.7895 19.9608 40.0002 20.4695 40.0002 20.9999V29.9998H38.0002C37.735 29.9998 37.4806 29.8945 37.2931 29.7069C37.1056 29.5194 37.0002 29.2651 37.0002 28.9998V25.9999C37.0002 25.8412 36.9625 25.6849 36.8902 25.5437C36.8179 25.4025 36.713 25.2805 36.5842 25.1879C36.456 25.0948 36.3074 25.0339 36.1508 25.0102C35.9941 24.9865 35.8341 25.0008 35.6842 25.0519L33.2702 25.8519L32.7072 25.2899C32.5192 25.1034 32.2649 24.9992 32.0002 24.9999H26.0002C25.735 24.9999 25.4806 25.1052 25.2931 25.2928C25.1055 25.4803 25.0002 25.7347 25.0002 25.9999V28.9998C25.0002 29.2651 24.8948 29.5194 24.7073 29.7069C24.5197 29.8945 24.2654 29.9998 24.0002 29.9998H22.0002V20.9999ZM23.0002 36.9997V31.9998H24.0002C24.7958 31.9998 25.5589 31.6837 26.1215 31.1211C26.6841 30.5585 27.0002 29.7955 27.0002 28.9998V26.9999H31.5862L32.2932 27.7069C32.4245 27.838 32.5898 27.93 32.7705 27.9726C32.9511 28.0152 33.1401 28.0066 33.3162 27.9479L35.0002 27.3879V28.9998C35.0002 29.7955 35.3163 30.5585 35.8789 31.1211C36.4415 31.6837 37.2045 31.9998 38.0002 31.9998H39.0002V36.9997C39.0002 39.1214 38.1573 41.1562 36.657 42.6565C35.1568 44.1568 33.1219 44.9996 31.0002 44.9996C28.8784 44.9996 26.8436 44.1568 25.3433 42.6565C23.843 41.1562 23.0002 39.1214 23.0002 36.9997ZM31.0002 46.9996C32.3774 46.9997 33.7396 46.7133 35.0002 46.1586V48.5656C33.9411 49.4939 32.5796 50.0038 31.1712 49.9996H30.8292C29.4208 50.0038 28.0593 49.4939 27.0002 48.5656V46.1586C28.2608 46.7133 29.6229 46.9997 31.0002 46.9996ZM9.04513 59.9994C9.29792 57.2678 10.561 54.7287 12.5872 52.8792C14.6133 51.0297 17.2568 50.0028 20.0002 49.9996H25.6162C27.0458 51.2895 28.9036 52.0023 30.8292 51.9995H31.1712C33.0967 52.0023 34.9546 51.2895 36.3842 49.9996H42.0002C44.7436 50.0028 47.387 51.0297 49.4132 52.8792C51.4394 54.7287 52.7024 57.2678 52.9552 59.9994H9.04513Z" fill="#1E2348"/>
<path d="M38.9495 5.68484C38.8831 5.48564 38.7557 5.31238 38.5854 5.18961C38.4151 5.06684 38.2104 5.0008 38.0005 5.00085H33.6775L31.9295 0.629912C31.8554 0.444022 31.7273 0.284623 31.5617 0.172326C31.396 0.0600296 31.2005 0 31.0004 0C30.8003 0 30.6049 0.0600296 30.4392 0.172326C30.2736 0.284623 30.1455 0.444022 30.0714 0.629912L28.3234 5.00085H24.0004C23.7905 5.00085 23.586 5.06689 23.4157 5.18961C23.2455 5.31233 23.1181 5.48551 23.0517 5.68462C22.9854 5.88373 22.9833 6.09867 23.0459 6.299C23.1085 6.49934 23.2325 6.6749 23.4004 6.80083L26.7874 9.3408L25.0714 13.6297C24.9937 13.8242 24.979 14.0381 25.0294 14.2414C25.0798 14.4446 25.1927 14.6269 25.3522 14.7625C25.5117 14.8982 25.7098 14.9804 25.9185 14.9974C26.1272 15.0145 26.336 14.9656 26.5154 14.8577L31.0004 12.1668L35.4855 14.8577C35.6649 14.9656 35.8737 15.0145 36.0824 14.9974C36.2911 14.9804 36.4892 14.8982 36.6487 14.7625C36.8082 14.6269 36.9211 14.4446 36.9715 14.2414C37.0219 14.0381 37.0072 13.8242 36.9295 13.6297L35.2135 9.3408L38.6005 6.80083C38.7684 6.67496 38.8924 6.49945 38.9551 6.29916C39.0177 6.09887 39.0158 5.88396 38.9495 5.68484ZM33.0715 9.3718L33.9715 11.6158L31.5174 10.1438C31.3619 10.0503 31.1839 10.001 31.0024 10.001C30.821 10.001 30.643 10.0503 30.4874 10.1438L28.0334 11.6158L28.9334 9.3718C29.0146 9.16717 29.0259 8.94151 28.9657 8.72979C28.9055 8.51807 28.7771 8.33214 28.6004 8.20081L27.0004 7.00083H29.0004C29.2004 7.0009 29.3959 6.94101 29.5615 6.82888C29.7271 6.71676 29.8552 6.55755 29.9294 6.37184L31.0004 3.69287L32.0714 6.37184C32.1456 6.55755 32.2738 6.71676 32.4394 6.82888C32.605 6.94101 32.8005 7.0009 33.0005 7.00083H35.0005L33.4005 8.20081C33.2245 8.33267 33.0969 8.51885 33.0374 8.73053C32.978 8.94221 32.9899 9.16759 33.0715 9.3718Z" fill="#1E2348"/>
<path d="M12.485 38.8577C12.6645 38.9656 12.8733 39.0145 13.082 38.9974C13.2907 38.9804 13.4887 38.8982 13.6482 38.7625C13.8078 38.6269 13.9207 38.4446 13.971 38.2414C14.0214 38.0381 14.0067 37.8242 13.929 37.6297L12.213 33.3408L15.6 30.8008C15.7679 30.6749 15.892 30.4993 15.9546 30.299C16.0171 30.0987 16.0151 29.8837 15.9487 29.6846C15.8824 29.4855 15.755 29.3123 15.5848 29.1896C15.4145 29.0669 15.2099 29.0009 15 29.0009H10.677L8.92902 24.6299C8.85497 24.444 8.72685 24.2846 8.56123 24.1723C8.39562 24.06 8.20012 24 8.00002 24C7.79992 24 7.60442 24.06 7.43881 24.1723C7.27319 24.2846 7.14507 24.444 7.07102 24.6299L5.32301 29.0009H1C0.790119 29.0009 0.585557 29.0669 0.415291 29.1896C0.245025 29.3123 0.117688 29.4855 0.0513169 29.6846C-0.015054 29.8837 -0.0170937 30.0987 0.0454866 30.299C0.108067 30.4993 0.232095 30.6749 0.400001 30.8008L3.78701 33.3408L2.07101 37.6297C1.99331 37.8242 1.97862 38.0381 2.02899 38.2414C2.07937 38.4446 2.19228 38.6269 2.35179 38.7625C2.5113 38.8982 2.70938 38.9804 2.91807 38.9974C3.12677 39.0145 3.33557 38.9656 3.51501 38.8577L8.00002 36.1668L12.485 38.8577ZM5.03101 35.6158L5.93102 33.3718C6.01233 33.1674 6.02397 32.9419 5.96413 32.7302C5.90429 32.5185 5.77631 32.3324 5.60001 32.2008L4.00001 31.0008H6.00002C6.20001 31.0009 6.39543 30.941 6.56103 30.8289C6.72664 30.7168 6.85482 30.5576 6.92902 30.3718L8.00002 27.6929L9.07102 30.3718C9.14522 30.5576 9.2734 30.7168 9.43901 30.8289C9.60461 30.941 9.80003 31.0009 10 31.0008H12L10.4 32.2008C10.2241 32.3327 10.0965 32.5189 10.037 32.7305C9.97754 32.9422 9.9895 33.1676 10.071 33.3718L10.971 35.6158L8.51502 34.1438C8.35949 34.0503 8.18146 34.001 8.00002 34.001C7.81858 34.001 7.64055 34.0503 7.48502 34.1438L5.03101 35.6158Z" fill="#1E2348"/>
<path d="M60.9999 29.0009H56.6769L54.9289 24.6299C54.8548 24.444 54.7267 24.2846 54.5611 24.1723C54.3955 24.06 54.2 24 53.9999 24C53.7998 24 53.6043 24.06 53.4387 24.1723C53.2731 24.2846 53.1449 24.444 53.0709 24.6299L51.3229 29.0009H46.9999C46.79 29.0009 46.5854 29.0669 46.4152 29.1896C46.2449 29.3123 46.1176 29.4855 46.0512 29.6846C45.9848 29.8837 45.9828 30.0987 46.0454 30.299C46.1079 30.4993 46.232 30.6749 46.3999 30.8008L49.7869 33.3408L48.0709 37.6297C47.9932 37.8242 47.9785 38.0381 48.0289 38.2414C48.0792 38.4446 48.1922 38.6269 48.3517 38.7625C48.5112 38.8982 48.7093 38.9804 48.918 38.9974C49.1267 39.0145 49.3354 38.9656 49.5149 38.8577L53.9999 36.1668L58.4849 38.8577C58.6644 38.9656 58.8731 39.0145 59.0818 38.9974C59.2905 38.9804 59.4886 38.8982 59.6481 38.7625C59.8076 38.6269 59.9205 38.4446 59.9709 38.2414C60.0213 38.0381 60.0066 37.8242 59.9289 37.6297L58.2129 33.3408L61.5999 30.8008C61.7678 30.6749 61.8919 30.4993 61.9544 30.299C62.017 30.0987 62.015 29.8837 61.9486 29.6846C61.8822 29.4855 61.7549 29.3123 61.5846 29.1896C61.4144 29.0669 61.2098 29.0009 60.9999 29.0009ZM56.0709 33.3718L56.9709 35.6158L54.5169 34.1438C54.3614 34.0503 54.1833 34.001 54.0019 34.001C53.8205 34.001 53.6424 34.0503 53.4869 34.1438L51.0329 35.6158L51.9329 33.3718C52.014 33.1672 52.0253 32.9415 51.9651 32.7298C51.9049 32.5181 51.7765 32.3321 51.5999 32.2008L49.9999 31.0008H51.9999C52.1999 31.0009 52.3953 30.941 52.5609 30.8289C52.7265 30.7168 52.8547 30.5576 52.9289 30.3718L53.9999 27.6929L55.0709 30.3718C55.1451 30.5576 55.2733 30.7168 55.4389 30.8289C55.6045 30.941 55.7999 31.0009 55.9999 31.0008H57.9999L56.3999 32.2008C56.224 32.3327 56.0964 32.5189 56.0369 32.7305C55.9774 32.9422 55.9894 33.1676 56.0709 33.3718Z" fill="#1E2348"/>
<path d="M7.56885 21.7828L9.52085 22.2168C10.2034 19.151 11.5345 16.2669 13.4246 13.7584C15.3147 11.25 17.7201 9.1753 20.4789 7.67395L19.5209 5.91797C16.5117 7.55604 13.8881 9.8194 11.8265 12.5559C9.76497 15.2923 8.3132 18.4385 7.56885 21.7828Z" fill="#1E2348"/>
<path d="M42.4794 5.91797L41.5214 7.67395C44.2802 9.1753 46.6855 11.25 48.5756 13.7584C50.4658 16.2669 51.7969 19.151 52.4794 22.2168L54.4314 21.7828C53.687 18.4385 52.2353 15.2923 50.1737 12.5559C48.1121 9.8194 45.4886 7.55604 42.4794 5.91797Z" fill="#1E2348"/>
</svg>
