<svg width="102" height="102" viewBox="0 0 102 102" fill="none" xmlns="http://www.w3.org/2000/svg">
<circle cx="51.423" cy="50.5048" r="36" transform="rotate(37.7512 51.423 50.5048)" fill="#E64363"/>
<path d="M68.0855 41.5059L67.1491 42.3329L67.157 42.3416L68.0855 41.5059ZM65.4625 39.3923L64.8301 40.4696L64.8379 40.4741L65.4625 39.3923ZM66.2802 58.6263L67.0964 59.5719L67.1111 59.5593L67.1254 59.5462L66.2802 58.6263ZM57.3144 63.3866L57.6183 64.5983L57.628 64.5959L57.6377 64.5933L57.3144 63.3866ZM43.0652 65.4087L43.0899 66.6577L43.1003 66.6575L43.1107 66.6571L43.0652 65.4087ZM42.5427 65.419L41.4421 66.01L41.8035 66.6831L42.5674 66.668L42.5427 65.419ZM42.2838 64.9369L41.1827 65.5269L41.1832 65.5278L42.2838 64.9369ZM36.8515 51.5518L35.6438 51.871L35.6472 51.8839L35.6509 51.8968L36.8515 51.5518ZM36.4792 41.4206L35.2586 41.1546L35.2545 41.1735L35.2509 41.1926L36.4792 41.4206ZM50.4545 31.2833L50.1974 32.5057L50.2071 32.5078L50.2167 32.5096L50.4545 31.2833ZM52.0192 31.7548L52.6439 30.6729L52.5738 30.6325L52.4992 30.6014L52.0192 31.7548ZM52.2052 31.8622L51.5806 32.944L51.6591 32.9893L51.7433 33.0228L52.2052 31.8622ZM53.5607 32.5207L52.936 33.6026L53.5607 32.5207ZM53.7311 32.6192L54.3881 31.5566L54.372 31.5467L54.3557 31.5373L53.7311 32.6192ZM56.2734 34.7688L55.3337 35.5919L55.4699 35.7474L55.6488 35.8507L56.2734 34.7688ZM56.3648 34.8216L57.3932 34.1124L57.2333 33.8806L56.9894 33.7398L56.3648 34.8216ZM56.4515 34.9936L55.2535 35.3477L55.3344 35.6212L55.5259 35.8325L56.4515 34.9936ZM57.1943 35.9617L56.1257 36.6086L56.1523 36.6526L56.1824 36.6942L57.1943 35.9617ZM57.6311 36.5652L58.6913 35.9045L58.6684 35.8678L58.643 35.8327L57.6311 36.5652ZM57.9025 37.1113L59.0436 36.6028L59.0436 36.6028L57.9025 37.1113ZM58.038 37.3993L56.9414 37.9976L56.9458 38.0057L56.9503 38.0137L58.038 37.3993ZM58.0889 37.4888L57.0041 38.1082L57.0041 38.1082L58.0889 37.4888ZM58.3338 37.9606L57.1799 38.4392L57.5462 39.3224L58.4944 39.1995L58.3338 37.9606ZM65.0427 52.4572L66.0774 53.1571L66.1023 53.1203L66.1246 53.0818L65.0427 52.4572ZM63.1375 52.9297L62.413 53.9473L62.4751 53.9915L62.5422 54.0279L63.1375 52.9297ZM65.1492 52.2728L64.081 51.6251L64.074 51.6366L64.0673 51.6482L65.1492 52.2728ZM64.7066 45.4878L65.6745 44.698L65.662 44.6827L65.6491 44.6679L64.7066 45.4878ZM62.6941 45.359L61.8853 44.4069L61.8752 44.4155L61.8652 44.4243L62.6941 45.359ZM62.5482 47.401L63.5125 46.6068L63.5056 46.5985L63.4986 46.5902L62.5482 47.401ZM62.774 50.8395L63.8005 51.5514L63.83 51.5089L63.8558 51.4641L62.774 50.8395ZM69.0218 40.6789C68.1722 39.717 67.1656 38.9331 66.0871 38.3104L64.8379 40.4741C65.7151 40.9806 66.5018 41.5999 67.1492 42.3328L69.0218 40.6789ZM67.1254 59.5462C72.3591 54.7376 74.2512 46.4887 69.014 40.6702L67.157 42.3416C71.2124 46.8472 69.9795 53.5311 65.435 57.7064L67.1254 59.5462ZM57.6377 64.5933C61.1196 63.6603 64.361 61.9331 67.0964 59.5719L65.464 57.6806C63.0097 59.799 60.1043 61.3458 56.991 62.18L57.6377 64.5933ZM43.1107 66.6571C48.0121 66.4787 52.8678 65.7898 57.6183 64.5983L57.0104 62.1749C52.4296 63.3239 47.7471 63.9882 43.0198 64.1603L43.1107 66.6571ZM42.5674 66.668L43.0899 66.6577L43.0406 64.1597L42.518 64.17L42.5674 66.668ZM41.1832 65.5278L41.4421 66.01L43.6433 64.8281L43.3844 64.3459L41.1832 65.5278ZM35.6509 51.8968C37.0135 56.6384 38.8639 61.1998 41.1828 65.5269L43.3849 64.3468C41.1502 60.1767 39.3662 55.7797 38.0522 51.2067L35.6509 51.8968ZM35.2509 41.1926C34.5906 44.7495 34.7267 48.402 35.6438 51.871L38.0593 51.2325C37.2371 48.1225 37.1142 44.8439 37.7074 41.6486L35.2509 41.1926ZM50.7117 30.0608C42.98 28.4345 36.777 34.1886 35.2586 41.1546L37.6997 41.6867C39.0137 35.6585 44.1802 31.24 50.1974 32.5057L50.7117 30.0608ZM52.4992 30.6014C51.9213 30.361 51.3142 30.1775 50.6924 30.0569L50.2167 32.5096C50.6727 32.598 51.1175 32.7326 51.5393 32.9081L52.4992 30.6014ZM52.8298 30.7803L52.6439 30.6729L51.3946 32.8366L51.5806 32.944L52.8298 30.7803ZM54.1853 31.4389C53.7019 31.1598 53.1983 30.9128 52.6671 30.7015L51.7433 33.0228C52.1564 33.1872 52.5515 33.3806 52.936 33.6026L54.1853 31.4389ZM54.3557 31.5373L54.1853 31.4389L52.936 33.6026L53.1065 33.701L54.3557 31.5373ZM57.2131 33.9457C56.3945 33.0112 55.4521 32.2145 54.3881 31.5566L53.0742 33.6817C53.9288 34.2101 54.6802 34.8459 55.3337 35.5919L57.2131 33.9457ZM56.9894 33.7398L56.898 33.687L55.6488 35.8507L55.7402 35.9035L56.9894 33.7398ZM57.6495 34.6394C57.5918 34.4444 57.4995 34.2666 57.3932 34.1124L55.3365 35.5308C55.3267 35.5166 55.3138 35.496 55.3 35.468C55.2866 35.4409 55.2693 35.4009 55.2535 35.3477L57.6495 34.6394ZM58.263 35.3148C57.9939 34.8704 57.6839 34.4931 57.3771 34.1546L55.5259 35.8325C55.7771 36.1096 55.9716 36.3542 56.1257 36.6086L58.263 35.3148ZM58.643 35.8327L58.2063 35.2293L56.1824 36.6942L56.6192 37.2976L58.643 35.8327ZM59.0436 36.6028C58.9734 36.4453 58.8447 36.1507 58.6913 35.9045L56.5709 37.2258C56.6145 37.2958 56.6713 37.4175 56.7615 37.6198L59.0436 36.6028ZM59.1346 36.801C59.1355 36.8026 59.1335 36.799 59.1283 36.7884C59.1232 36.7781 59.1165 36.7641 59.1079 36.7456C59.09 36.707 59.0699 36.662 59.0436 36.6028L56.7615 37.6198C56.8037 37.7144 56.8727 37.8717 56.9414 37.9976L59.1346 36.801ZM59.1737 36.8693C59.1563 36.8388 59.1407 36.8115 59.1257 36.785L56.9503 38.0137C56.9687 38.0462 56.9872 38.0786 57.0041 38.1082L59.1737 36.8693ZM59.4877 37.4821C59.387 37.2392 59.2532 37.0084 59.1737 36.8693L57.0041 38.1082C57.1008 38.2777 57.1505 38.3683 57.1799 38.4392L59.4877 37.4821ZM66.0949 38.3149C63.7052 36.9122 60.9232 36.3653 58.1732 36.7218L58.4944 39.1995C60.7071 38.9126 62.9294 39.3539 64.8301 40.4696L66.0949 38.3149ZM64.008 51.7573C63.9794 51.7996 63.9347 51.8316 63.8772 51.8456C63.8182 51.86 63.7675 51.8502 63.7329 51.8315L62.5422 54.0279C63.7518 54.6837 65.2939 54.3155 66.0774 53.1571L64.008 51.7573ZM64.0673 51.6482L63.9609 51.8326L66.1246 53.0818L66.231 52.8974L64.0673 51.6482ZM63.7388 46.2776C64.9612 47.7756 65.1115 49.9254 64.081 51.6251L66.2174 52.9204C67.7869 50.3315 67.5766 47.0289 65.6745 44.698L63.7388 46.2776ZM63.5028 46.3111C63.6083 46.2214 63.7199 46.2569 63.7641 46.3077L65.6491 44.6679C64.6749 43.548 62.9963 43.4632 61.8853 44.4069L63.5028 46.3111ZM63.4986 46.5902C63.4283 46.5078 63.4329 46.3734 63.5229 46.2936L61.8652 44.4243C60.7697 45.3958 60.633 47.0808 61.5979 48.2118L63.4986 46.5902ZM63.8836 51.416C64.7609 49.8964 64.6331 47.9675 63.5125 46.6068L61.5839 48.1951C62.0207 48.7254 62.0933 49.5199 61.7199 50.1668L63.8836 51.416ZM63.8558 51.4641L63.8836 51.416L61.7199 50.1668L61.6921 50.2148L63.8558 51.4641ZM63.7459 51.7647C63.7358 51.7046 63.7471 51.6283 63.8005 51.5514L61.7475 50.1275C61.3321 50.7264 61.1618 51.4586 61.2815 52.1759L63.7459 51.7647ZM63.8621 51.9121C63.7711 51.8473 63.7487 51.7814 63.7459 51.7647L61.2815 52.1759C61.4084 52.9366 61.8597 53.5533 62.413 53.9473L63.8621 51.9121Z" fill="white"/>
</svg>
