<svg xmlns="http://www.w3.org/2000/svg" fill="none" width="37" height="32" viewBox="0 0 37 32">
  <path fill="#040724" d="M18.5 10.57A5.29 5.29 0 1 0 18.5 0a5.29 5.29 0 0 0 0 10.57Zm0-2.64a2.64 2.64 0 1 1 0-5.29 2.64 2.64 0 0 1 0 5.29ZM6.6 10.57a3.96 3.96 0 1 0 0-7.93 3.96 3.96 0 0 0 0 7.93Zm0-2.64a1.32 1.32 0 1 1 0-2.64 1.32 1.32 0 0 1 0 2.64ZM34.37 6.6a3.96 3.96 0 1 1-7.93 0 3.96 3.96 0 0 1 7.93 0Zm-2.65 0a1.32 1.32 0 1 0-2.64 0 1.32 1.32 0 0 0 2.64 0Zm-19.85 6.94c.37-.21.8-.34 1.25-.34H23.9a2.53 2.53 0 0 1 2.54 2.55v8.03a7.93 7.93 0 0 1-15.86 0v-8.03c0-.95.52-1.78 1.29-2.21Zm1.35 10.24a5.29 5.29 0 0 0 10.58 0v-7.93H13.2v7.93ZM8.6 15.76c0-.95.29-1.82.78-2.55H2.64A2.64 2.64 0 0 0 0 15.86v6.6a6.6 6.6 0 0 0 9.68 5.85 9.84 9.84 0 0 1-.9-2.54 3.96 3.96 0 0 1-6.14-3.3v-6.61H8.6v-.1Zm21.8 13.31a6.58 6.58 0 0 1-3.07-.76c.41-.8.71-1.65.9-2.54a3.96 3.96 0 0 0 6.14-3.3v-6.61H28.4v-.1c0-.95-.29-1.82-.78-2.55h6.73A2.64 2.64 0 0 1 37 15.86v6.6a6.6 6.6 0 0 1-6.6 6.61Z"/>
</svg>