<svg width="14" height="14" viewBox="0 0 14 14" fill="none" xmlns="http://www.w3.org/2000/svg">
<path fill-rule="evenodd" clip-rule="evenodd" d="M7.00061 0.599609C5.26245 0.599609 5.04432 0.607209 4.36165 0.638276C3.68031 0.669477 3.21523 0.777345 2.8083 0.935613C2.38736 1.09908 2.03029 1.31775 1.67455 1.67362C1.31855 2.02936 1.09988 2.38643 0.935876 2.80723C0.777208 3.2143 0.669207 3.67951 0.63854 4.36058C0.608006 5.04326 0.600006 5.26152 0.600006 6.99968C0.600006 8.73783 0.60774 8.9553 0.638673 9.63797C0.670007 10.3193 0.777875 10.7844 0.93601 11.1913C1.09961 11.6123 1.31828 11.9693 1.67415 12.3251C2.02975 12.6811 2.38682 12.9003 2.8075 13.0637C3.2147 13.222 3.6799 13.3299 4.36111 13.3611C5.04379 13.3921 5.26179 13.3997 6.99981 13.3997C8.73809 13.3997 8.95556 13.3921 9.63823 13.3611C10.3196 13.3299 10.7852 13.222 11.1924 13.0637C11.6132 12.9003 11.9697 12.6811 12.3253 12.3251C12.6813 11.9693 12.9 11.6123 13.064 11.1915C13.2213 10.7844 13.3293 10.3192 13.3613 9.6381C13.392 8.95543 13.4 8.73783 13.4 6.99968C13.4 5.26152 13.392 5.04339 13.3613 4.36071C13.3293 3.67937 13.2213 3.2143 13.064 2.80737C12.9 2.38643 12.6813 2.02936 12.3253 1.67362C11.9693 1.31762 11.6133 1.09895 11.192 0.935613C10.784 0.777345 10.3186 0.669477 9.6373 0.638276C8.95463 0.607209 8.73729 0.599609 6.99861 0.599609H7.00061ZM6.42644 1.75294C6.59684 1.75267 6.78698 1.75294 7.00058 1.75294C8.7094 1.75294 8.91193 1.75907 9.58674 1.78974C10.2107 1.81827 10.5494 1.92254 10.775 2.01014C11.0737 2.12614 11.2866 2.26481 11.5105 2.48881C11.7345 2.71281 11.8732 2.92615 11.9894 3.22482C12.077 3.45015 12.1814 3.78882 12.2098 4.41283C12.2405 5.0875 12.2472 5.29017 12.2472 6.99819C12.2472 8.70621 12.2405 8.90888 12.2098 9.58355C12.1813 10.2076 12.077 10.5462 11.9894 10.7716C11.8734 11.0702 11.7345 11.2829 11.5105 11.5068C11.2865 11.7308 11.0738 11.8694 10.775 11.9854C10.5497 12.0734 10.2107 12.1774 9.58674 12.206C8.91207 12.2366 8.7094 12.2433 7.00058 12.2433C5.29163 12.2433 5.08909 12.2366 4.41442 12.206C3.79041 12.1772 3.45174 12.0729 3.22601 11.9853C2.92734 11.8693 2.714 11.7306 2.49 11.5066C2.266 11.2826 2.12733 11.0698 2.01106 10.771C1.92346 10.5457 1.81906 10.207 1.79066 9.58302C1.75999 8.90835 1.75386 8.70568 1.75386 6.99659C1.75386 5.28751 1.75999 5.08591 1.79066 4.41123C1.81919 3.78722 1.92346 3.44855 2.01106 3.22295C2.12706 2.92428 2.266 2.71095 2.49 2.48694C2.714 2.26294 2.92734 2.12427 3.22601 2.00801C3.45161 1.92001 3.79041 1.816 4.41442 1.78734C5.00482 1.76067 5.23363 1.75267 6.42644 1.75134V1.75294ZM10.4169 2.81562C9.99288 2.81562 9.64888 3.15922 9.64888 3.58336C9.64888 4.00736 9.99288 4.35137 10.4169 4.35137C10.8409 4.35137 11.1849 4.00736 11.1849 3.58336C11.1849 3.15935 10.8409 2.81562 10.4169 2.81562ZM7.00062 3.71296C5.18553 3.71296 3.71392 5.18457 3.71392 6.99966C3.71392 8.81474 5.18553 10.2857 7.00062 10.2857C8.8157 10.2857 10.2868 8.81474 10.2868 6.99966C10.2868 5.18457 8.8157 3.71296 7.00062 3.71296ZM7.00059 4.8663C8.17874 4.8663 9.13395 5.82138 9.13395 6.99966C9.13395 8.1778 8.17874 9.13301 7.00059 9.13301C5.82231 9.13301 4.86724 8.1778 4.86724 6.99966C4.86724 5.82138 5.82231 4.8663 7.00059 4.8663Z" fill="#33354D"/>
</svg>
