<svg width="65" height="120" viewBox="0 0 65 120" fill="none" xmlns="http://www.w3.org/2000/svg">
<line x1="33.5" y1="64" x2="33.5" y2="120" stroke="#040404" stroke-dasharray="10 2 2 10 2 2"/>
<circle cx="32.5" cy="32.5" r="32" stroke="#040404"/>
<path d="M41.3267 38.52C41.2798 38.3537 41.1702 38.2121 41.021 38.1251C40.8717 38.038 40.6945 38.0123 40.5267 38.0533L38.8667 38.5C39.7751 37.161 40.3259 35.6119 40.4667 34C40.6029 32.4919 40.3824 30.973 39.823 29.5659C39.2636 28.1588 38.3811 26.903 37.2467 25.9C37.1156 25.7916 36.9479 25.7373 36.7781 25.7485C36.6083 25.7597 36.4492 25.8353 36.3334 25.96C36.2168 26.0927 36.1577 26.2662 36.169 26.4424C36.1802 26.6187 36.2609 26.7832 36.3934 26.9C37.3709 27.7628 38.1313 28.8438 38.6132 30.0553C39.095 31.2669 39.2846 32.5749 39.1667 33.8733C39.0525 35.241 38.5938 36.5575 37.8334 37.7L37.6667 36.0267C37.6793 35.9282 37.6697 35.8282 37.6387 35.7339C37.6076 35.6396 37.5559 35.5534 37.4873 35.4816C37.4187 35.4098 37.335 35.3543 37.2421 35.3191C37.1493 35.2838 37.0498 35.2697 36.9509 35.2778C36.8519 35.286 36.7561 35.3161 36.6702 35.366C36.5844 35.4159 36.5108 35.4843 36.4549 35.5663C36.3989 35.6483 36.3619 35.7418 36.3467 35.8399C36.3314 35.938 36.3383 36.0382 36.3667 36.1333L36.7 40.4267L40.8667 39.32C41.0318 39.2717 41.1718 39.1615 41.2575 39.0125C41.3432 38.8634 41.368 38.6869 41.3267 38.52Z" fill="#040404"/>
<path d="M21.8733 32.3864C21.962 32.4434 22.0622 32.4798 22.1667 32.4931C22.3407 32.5159 22.5166 32.4692 22.6564 32.3631C22.7962 32.257 22.8885 32.1001 22.9133 31.9264C23.1888 29.8925 24.2225 28.0378 25.8073 26.7336C27.3921 25.4293 29.4111 24.772 31.46 24.8931L29.9667 25.9131C29.861 25.9927 29.7814 26.1019 29.738 26.2269C29.6946 26.3519 29.6894 26.4869 29.723 26.6149C29.7566 26.7428 29.8275 26.8579 29.9267 26.9454C30.0259 27.0329 30.1489 27.089 30.28 27.1064C30.4302 27.1201 30.5806 27.0825 30.7067 26.9998L34.26 24.5598L31.22 21.5064C31.1659 21.4235 31.094 21.3537 31.0096 21.3021C30.9252 21.2504 30.8303 21.2182 30.7319 21.2078C30.6334 21.1974 30.5339 21.209 30.4405 21.2419C30.3472 21.2747 30.2623 21.3279 30.192 21.3977C30.1218 21.4674 30.0679 21.5519 30.0344 21.645C30.0009 21.7382 29.9886 21.8376 29.9983 21.9361C30.008 22.0346 30.0395 22.1297 30.0905 22.2145C30.1416 22.2993 30.2108 22.3717 30.2933 22.4264L31.4267 23.5598C29.0606 23.4466 26.738 24.2247 24.9175 25.7403C23.097 27.2559 21.9109 29.399 21.5933 31.7464C21.5763 31.8686 21.5934 31.993 21.6428 32.106C21.6922 32.219 21.772 32.3161 21.8733 32.3864Z" fill="#040404"/>
<path d="M33.4867 40.9533C32.4457 41.2859 31.3476 41.4016 30.2601 41.2933C28.9356 41.1635 27.6627 40.7133 26.5512 39.9816C25.4396 39.2498 24.5229 38.2586 23.8801 37.0933L25.5401 37.7133C25.6931 37.7399 25.8506 37.7122 25.9853 37.635C26.1201 37.5578 26.2237 37.436 26.2782 37.2906C26.3327 37.1451 26.3348 36.9853 26.284 36.8385C26.2332 36.6917 26.1328 36.5673 26.0001 36.4867L22.9401 35.3533L21.9601 35L21.2201 39.2333C21.1944 39.4025 21.2348 39.575 21.3328 39.7153C21.4308 39.8555 21.579 39.9527 21.7467 39.9867H21.8601C22.017 39.9895 22.1699 39.9369 22.2918 39.8382C22.4137 39.7394 22.4969 39.6007 22.5267 39.4467L22.8067 37.8467C23.5607 39.1675 24.6198 40.2888 25.8956 41.1169C27.1713 41.9449 28.6266 42.4558 30.1401 42.6067C31.4054 42.7321 32.6829 42.5959 33.8934 42.2067C34.0475 42.1428 34.1721 42.0236 34.2426 41.8724C34.3131 41.7212 34.3243 41.549 34.2741 41.39C34.2238 41.2309 34.1158 41.0964 33.9713 41.0131C33.8267 40.9298 33.6562 40.9037 33.4934 40.94L33.4867 40.9533Z" fill="#040404"/>
<path d="M33.6666 29.667H28.3333C28.1565 29.667 27.9869 29.7372 27.8619 29.8623C27.7369 29.9873 27.6666 30.1568 27.6666 30.3337V35.667C27.6666 35.8438 27.7369 36.0134 27.8619 36.1384C27.9869 36.2634 28.1565 36.3337 28.3333 36.3337H33.6666C33.8434 36.3337 34.013 36.2634 34.138 36.1384C34.2631 36.0134 34.3333 35.8438 34.3333 35.667V30.3337C34.3333 30.1568 34.2631 29.9873 34.138 29.8623C34.013 29.7372 33.8434 29.667 33.6666 29.667ZM33 35.0003H29V31.0003H33V35.0003Z" fill="#040404"/>
</svg>
