<svg xmlns="http://www.w3.org/2000/svg" fill="none" width="65" height="65" viewBox="0 0 65 65">
  <circle cx="32.5" cy="32.5" r="32" stroke="#040404"/>
  <path fill="#fff" stroke="#040404" d="m35.33 38.5.04-.32c.06-.53.06-1.06 0-1.58l-.04-.33.29-.16.82-.49a.6.6 0 0 0 .24-.72l-.6-1.45a.6.6 0 0 0-.68-.35l-.93.24-.32.09-.2-.26c-.33-.41-.7-.79-1.12-1.12l-.26-.2.09-.32.24-.93a.6.6 0 0 0-.35-.68l-1.44-.6a.6.6 0 0 0-.73.24l4.95 8.94Zm0 0 .28.17m-.28-.17.28.17m0 0 .83.48a.6.6 0 0 1 .24.73l-.6 1.45a.6.6 0 0 1-.68.35l-.93-.25-.32-.08-.2.26c-.33.41-.7.79-1.12 1.11l-.26.2.09.32.24.93m2.71-5.5-2.71 5.5m-3.17-13.5-.33-.04a6.77 6.77 0 0 0-1.58 0l-.32.04-.17-.28-.48-.83a.6.6 0 0 0-.73-.24l-1.45.6a.6.6 0 0 0-.34.68l.24.93.08.32-.26.2c-.41.33-.78.7-1.11 1.12l-.2.26-.32-.09-.93-.24a.6.6 0 0 0-.69.35l8.59-2.78Zm0 0 .16-.28m-.16.28.16-.28m0 0 .49-.83-.49.83Zm-8.06 11.29.93-.25.31-.08.2.26c.33.41.7.78 1.12 1.11l.26.2-.08.32-.24.93a.6.6 0 0 0 .34.69l-.19.46.2-.46 1.44.6c.07.03.14.04.22.04.2 0 .4-.1.5-.28l.5-.83.16-.28.32.03c.53.06 1.06.06 1.58 0l.33-.03.16.28.49.83-8.55-3.54Zm0 0a.6.6 0 0 1-.69-.35m.69.35-1.15-.16.46-.2m11.76 2.85a.6.6 0 0 1-.35.69l-1.44.6 1.79-1.29Zm2.9-2.56-.43-.11-.9-.24m1.32.35-1.2-.83m1.2.83.17-.4m-.17.4.17-.4m-1.5.05.14-.48m-.13.48.13-.48m-.13.48a.59.59 0 0 0-.62.21 6.6 6.6 0 0 1-1.16 1.15m1.9-1.84c-.42-.11-.87.04-1.14.38-.3.4-.67.76-1.06 1.07m.3.4-.3-.4m.3.4-.3-.4m.3.4a.59.59 0 0 0-.2.61l.23.9.11.43-.4.16-1.33.55-.4.17-.22-.37a53.1 53.1 0 0 1-.47-.81.59.59 0 0 0-.58-.3 6.6 6.6 0 0 1-1.63 0m4.59-1.74-7.65 1.01-.24.9-.1.43.4.16 1.32.55.4.17.22-.37.48-.81c.12-.21.34-.32.58-.3m0 0 .06-.5-.06.5Zm8.16-2.76.55-1.33.16-.4-.37-.22a53.4 53.4 0 0 0-.8-.48l-.26.44m.72 1.99-.72-2m-13.21-2.64a.59.59 0 0 0-.3-.58l-.8-.47-.38-.23.17-.4.55-1.32.16-.4.42.1.91.24c.23.06.47-.02.62-.2l-1.35 3.26Zm0 0a6.6 6.6 0 0 0 0 1.63v-1.63Zm2.36-6.36.4-.17 1.33-.55.4-.16.22.37.47.8c.13.22.35.33.59.3a6.6 6.6 0 0 1 1.63 0l-5.04-.6Zm0 0 .11.42m-.1-.42.1.42m0 0 .24.9-.24-.9Zm6.2-1.3.4.16 1.33.55.4.17-.1.42-.24.9c-.06.24.02.48.2.62.43.34.82.73 1.16 1.16.14.18.38.26.62.2l.9-.23.42-.11.17.4.55 1.33.16.4-.37.22-.8.47a.59.59 0 0 0-.3.58 6.6 6.6 0 0 1 0 1.63l-4.5-8.87Zm0 0-.22.37m.23-.37-.23.37m0 0-.47.8m.47-.8-.47.8m5.23 8.72.25-.44m-.25.44.25-.44m-14.95 1.1.6 1.45m-.6-1.45.6 1.45m-.6-1.45a.6.6 0 0 1 .24-.73l-.24.73Zm9.47-9.37a.59.59 0 0 1-.58.29l.58-.3Zm5.48 8.27a.59.59 0 0 1-.29-.58l.3.58Zm1.61-4.17-.15-.37a.5.5 0 0 0-.3.42v.02l.03.01.42-.08Zm-16.56.28.6-1.44-.36 5.7.83-.48.29-.17-.04-.32a6.77 6.77 0 0 1 0-1.58l.04-.33-.29-.16-.83-.49a.6.6 0 0 1-.24-.73Zm3.99 7.73c.19.15.27.39.2.62l-2.7-5.04a.59.59 0 0 1-.3.59l-.8.47-.38.22.17.4.55 1.33.16.4.42-.11.9-.24c.24-.06.48.02.63.2v.01c.33.43.72.82 1.15 1.15Zm6.58 2.84a.6.6 0 0 1-.73-.24l.73.24ZM31.82 36.07a3.47 3.47 0 0 0-4.53-1.89l4.53 1.9Zm0 0a3.47 3.47 0 0 1-4.53 4.52l4.53-4.52Zm-6.41 2.64a3.44 3.44 0 0 0 1.88 1.88l-1.88-1.88Zm0 0a3.47 3.47 0 0 1 1.88-4.53l-1.88 4.53Zm4.47 1.73a3.28 3.28 0 0 1-4.31-1.79 3.3 3.3 0 0 1 1.78-4.31l2.53 6.1Zm0 0a3.3 3.3 0 0 0 1.78-4.32m-1.78 4.32 1.78-4.32m0 0a3.3 3.3 0 0 0-4.31-1.78l4.31 1.78Zm.58-.34a3.98 3.98 0 0 0-.18-.36.5.5 0 0 0-.28.43l.04.01.42-.08ZM44.47 30.87a.93.93 0 0 0 .09-1.2l-.38-.5c.18-.31.32-.65.42-1l-.13 2.7Zm0 0-.8.8m.8-.8-.8.8m0 0a.93.93 0 0 1-1.2.1l-.5-.38c-.32.18-.66.32-1 .42l-.1.62a.93.93 0 0 1-.9.78h-1.14a.93.93 0 0 1-.92-.78m5.75-.75h-8.53m0 0c.32.32.83.36 1.2.09l.5-.38c.31.18.65.32 1 .42l.08.62m-2.78-.75-.8-.8m.8.8-.8-.8m3.58 1.55.5-.08m-.5.08.5-.08c.03.2.21.36.42.36h1.13c.2 0 .39-.16.42-.36l.09-.6.04-.32.3-.1c.32-.1.63-.22.92-.38l.28-.15.26.2.5.37c.16.12.4.1.54-.05l.8-.8a.43.43 0 0 0 .04-.55l-.36-.49-.2-.25.15-.29c.16-.29.29-.6.38-.91l.1-.31.31-.04.61-.09c.2-.03.36-.21.36-.42v-1.13c0-.2-.16-.39-.36-.42l-.6-.09-.33-.04-.09-.3c-.1-.32-.22-.63-.38-.92l-.15-.29.2-.25c.12-.17.25-.33.36-.5.13-.16.1-.4-.04-.54l-.8-.8a.43.43 0 0 0-.55-.05l-.49.37-.26.2-.28-.15c-.29-.16-.6-.29-.91-.38l-.31-.1-.04-.31-.09-.61a.43.43 0 0 0-.42-.36h-1.13c-.2 0-.4.16-.42.36v11.5m0 0-.09-.61-.04-.32-.3-.1c-.32-.1-.63-.22-.92-.38l-.29-.15-.25.2-.5.37c-.16.12-.4.1-.54-.05l-.8-.8a.43.43 0 0 1-.05-.55l.37-.49.2-.25-.15-.29c-.16-.29-.29-.6-.38-.91l-.1-.31-.32-.04-.6-.09a.43.43 0 0 1-.36-.42v-1.13c0-.2.16-.39.36-.42l.6-.09.32-.04.1-.3c.1-.32.22-.63.38-.92l.15-.29-.2-.25-.37-.5a.43.43 0 0 1 .05-.54l.8-.8a.43.43 0 0 1 .55-.05l.49.37.25.2.29-.15c.29-.16.6-.29.91-.38l.31-.1m.13 10.57-.13-10.56m-3.96 9.08a.93.93 0 0 1-.09-1.2m.1 1.2-.1-1.2m4.05-7.88.04-.32m-.04.32.04-.32m-4.09 8.2.38-.5a5.42 5.42 0 0 1-.42-1l-.62-.08a.93.93 0 0 1-.78-.92v-1.13c0-.46.34-.85.78-.91l.62-.1c.1-.34.24-.68.42-1l-.38-.5a.93.93 0 0 1 .1-1.2l.8-.8a.93.93 0 0 1 1.2-.09l.5.38c.31-.18.65-.32 1-.42l-3.6 8.28Zm4.1-8.2.08-.61-.09.6Zm7.06 5.98-.42.06-.57.08m1-.14-1.06-.36m1.05.36v-.43m0 .43v-.43m-.99.57-.06-.5m.06.5-.06-.5m.06.5a.42.42 0 0 0-.35.3c-.1.38-.26.75-.45 1.1a.42.42 0 0 0 .03.46m.7-2.36a.92.92 0 0 0-.76.67c-.1.34-.23.67-.4.98a.92.92 0 0 0 .06 1.02m.4-.3-.4.3m.4-.3-.4.3m.4-.3c.12.14.23.3.34.45l.26.34-.3.3-.58.59-.3.3-.36-.26c-.15-.1-.3-.22-.45-.34a.42.42 0 0 0-.46-.03l1.8-.6-.35-.45m-7.68 0-.33.44.4-1.46c.19.32.16.72-.07 1.02Zm0 0-.4-.3m.4.3-.4-.3m0 0c.11-.14.13-.33.04-.47a4.8 4.8 0 0 1-.45-1.1.42.42 0 0 0-.36-.3l-.56-.08-.43-.06v-1.69l.43-.06.57-.08m.77 3.83 5.22-7.85m-5.22 7.85-.34.46-.26.34.3.3.58.59.3.3.35-.26.46-.34c.13-.1.32-.12.46-.03.35.2.72.35 1.1.45m-2.95-1.8 2.95 1.8m-3.72-5.64.06.5m-.06-.5.06.5m-.06-.5c.17-.02.3-.14.35-.3.1-.38.26-.75.45-1.1a.42.42 0 0 0-.03-.46l-.34-.45-.26-.35.3-.3.58-.59.3-.3.35.26.46.34c.13.1.31.12.46.03.35-.2.72-.35 1.1-.45a.42.42 0 0 0 .3-.35l.08-.57.06-.42h1.69l.06.42.08.57m-5.93 4.52-.56.08.56-.08Zm5.93-4.52c.02.17.14.3.3.35m-.3-.35.3.35m-2.57 9.31c.16.05.28.18.3.35l.08.57.06.43h1.69l.06-.43.08-.57c.02-.17.14-.3.3-.35.38-.1.75-.26 1.1-.45l-3.67.45Zm0 0 .13-.48-.13.48Zm7.28-4.25v-1.25l-.42-.06-.57-.08a.42.42 0 0 1-.35-.3c-.1-.38-.26-.75-.45-1.1a.42.42 0 0 1 .03-.46l.34-.45.26-.35-.3-.3-.58-.59-.3-.3-.36.26c-.15.1-.3.22-.45.34a.42.42 0 0 1-.46.03 4.8 4.8 0 0 0-1.1-.45m4.71 5.07-4.7-5.07m-3.43 8.42a.92.92 0 0 0-1.02.08l1.02-.08Z"/>
  <path fill="#fff" stroke="#040404" d="M41.2 26.6a1.81 1.81 0 1 0-3.62 0 1.81 1.81 0 0 0 3.62 0Zm-3.66 0a1.86 1.86 0 1 1 3.72.01 1.86 1.86 0 0 1-3.72 0Z"/>
</svg>