<svg xmlns="http://www.w3.org/2000/svg" fill="none" width="65" height="65" viewBox="0 0 65 65">
  <circle cx="32.5" cy="32.5" r="32" stroke="#040404"/>
  <path fill="#040404" d="M41.33 38.52a.67.67 0 0 0-.8-.47l-1.66.45a9.65 9.65 0 0 0-1.62-12.6.67.67 0 0 0-.92.06.67.67 0 0 0 .06.94 8.3 8.3 0 0 1 1.44 10.8l-.16-1.67a.67.67 0 1 0-1.3.1l.33 4.3 4.17-1.11a.67.67 0 0 0 .46-.8ZM21.87 32.39c.1.05.2.09.3.1a.67.67 0 0 0 .74-.56 8.14 8.14 0 0 1 8.55-7.04l-1.5 1.02a.67.67 0 0 0 .32 1.2c.15.01.3-.03.43-.11l3.55-2.44-3.04-3.05a.67.67 0 1 0-.93.92l1.14 1.13a9.47 9.47 0 0 0-9.84 8.19.67.67 0 0 0 .28.64ZM33.49 40.95a8.2 8.2 0 0 1-9.6-3.86l1.65.62A.67.67 0 0 0 26 36.5l-3.06-1.14-.98-.35-.74 4.23a.67.67 0 0 0 .53.76h.11a.67.67 0 0 0 .67-.54l.28-1.6a9.53 9.53 0 0 0 11.08 4.36.67.67 0 0 0-.4-1.27v.01ZM33.67 29.67h-5.34a.67.67 0 0 0-.66.66v5.34a.67.67 0 0 0 .66.66h5.34a.67.67 0 0 0 .66-.66v-5.34a.67.67 0 0 0-.66-.66ZM33 35h-4v-4h4v4Z"/>
</svg>