<svg width="12" height="16" viewBox="0 0 12 16" fill="none" xmlns="http://www.w3.org/2000/svg">
<path d="M9.77837 2.14219C8.82814 1.19221 7.5597 0.627874 6.21786 0.558116C4.87602 0.488358 3.5559 0.918117 2.51228 1.76445C1.46867 2.61078 0.775548 3.81369 0.566688 5.14102C0.357829 6.46834 0.648039 7.82598 1.38131 8.95191L5.15965 14.7523C5.24373 14.8814 5.3587 14.9874 5.49412 15.0608C5.62955 15.1342 5.78116 15.1727 5.9352 15.1727C6.08924 15.1727 6.24085 15.1342 6.37627 15.0608C6.5117 14.9874 6.62666 14.8814 6.71075 14.7523L10.4892 8.95191C11.1696 7.90744 11.4703 6.66084 11.3409 5.42105C11.2115 4.18125 10.6598 3.02362 9.77837 2.14219ZM9.65134 8.40607L5.93521 14.1108L2.21906 8.40607C1.08156 6.65985 1.32553 4.32297 2.79915 2.84929C3.21098 2.43744 3.6999 2.11075 4.23798 1.88787C4.77607 1.66498 5.35279 1.55026 5.93521 1.55026C6.51764 1.55026 7.09436 1.66498 7.63244 1.88787C8.17053 2.11075 8.65945 2.43744 9.07128 2.84929C10.5449 4.32297 10.7888 6.65985 9.65134 8.40607Z" fill="white"/>
</svg>
