<svg width="14" height="10" viewBox="0 0 14 10" fill="none" xmlns="http://www.w3.org/2000/svg">
<path fill-rule="evenodd" clip-rule="evenodd" d="M12.0008 0.874274C12.5516 1.02541 12.9853 1.47072 13.1325 2.03622C13.4 3.06113 13.4 5.19961 13.4 5.19961C13.4 5.19961 13.4 7.33802 13.1325 8.363C12.9853 8.9285 12.5516 9.37381 12.0008 9.52502C11.0027 9.79961 7.00001 9.79961 7.00001 9.79961C7.00001 9.79961 2.99732 9.79961 1.99913 9.52502C1.44837 9.37381 1.01462 8.9285 0.867424 8.363C0.600006 7.33802 0.600006 5.19961 0.600006 5.19961C0.600006 5.19961 0.600006 3.06113 0.867424 2.03622C1.01462 1.47072 1.44837 1.02541 1.99913 0.874274C2.99732 0.599609 7.00001 0.599609 7.00001 0.599609C7.00001 0.599609 11.0027 0.599609 12.0008 0.874274ZM5.80002 3.39957V7.39957L9.00002 5.39964L5.80002 3.39957Z" fill="#33354D"/>
</svg>
